<?xml version="1.0" encoding="UTF-8"?>
<svg id="Layer_1" xmlns="http://www.w3.org/2000/svg" version="1.1" viewBox="0 0 352 360">
  <!-- Generator: Adobe Illustrator 30.2.1, SVG Export Plug-In . SVG Version: 2.1.1 Build 1)  -->
  <defs>
    <style>
      .st0 {
        fill: #785032;
      }

      .st1 {
        fill: #785032;
      }

      .st2 {
        fill: #750014;
      }

      .st3 {
        fill: #fff;
      }

      .st4 {
        fill: #ebd7bd;
      }

      .st5 {
        fill: #ebd7bd;
      }

      .st6 {
        fill: none;
        stroke: #231f20;
        stroke-width: 8.03px;
      }
    </style>
  </defs>
  <path class="st3" d="M-562.22,555.77"/>
  <g>
    <g>
      <path class="st1" d="M129.59,206.51c-5.41.05-10.36-.47-14.89-1.42,2.27,3.85,7.43,8.72,19.07,8.4,10.95-.31,16.14-5.71,18.59-10.56-6.37,2.13-13.9,3.5-22.77,3.58Z"/>
      <path class="st4" d="M206.69,96.45c-.13,6.21-.7,10.52-.84,11.65l-.03.19c-4.84-1.36-12.5-3.05-23.33-4.16-20.53-2.11-42.19-.03-42.19-.03l-31.9,1.94s-5.96-1.9-25.71-2.1c-11.87-.12-22.32,1.91-28.78,3.55,0,0-.52-4.32-.71-10.14-4.2,2.56-20.07,14.1-18.98,41.59,1.43,36.15,45.75,44.58,45.75,44.58,0,0,24.03,22.98,49.62,22.98,37.43,0,51.48-24.92,51.48-24.92,0,0,39.78-11.5,45.59-38.91,6.28-29.68-16.02-44.52-19.97-46.21Z"/>
      <path class="st6" d="M184.99,191.54"/>
      <path class="st6" d="M145.25,180.4"/>
      <path class="st6" d="M184.99,191.54"/>
      <path class="st6" d="M145.25,180.4"/>
      <path class="st3" d="M52.05,327.73l.45,1.51c.36,4.31.71,6.71.71,6.71,0,0,43.87,13.45,90.66,11.33,50.66-2.3,85.25-20.45,85.25-20.45l4.22-2.75c-.07-6.54-.45-12.93-1.09-19.14l-9.82-47.14c-2.88-9.21-6.05-17.52-9.13-24.72l.31-.68c2.34,1.23,4.97,2.47,7.26,3.19l.21-.42c3.71-3,10.82-9.43,15.89-18.23,7.1-12.31,9.07-23.16,9.07-23.16,0,0-11.25-6.62-25.61-11.57-8.31-2.86-17.87-4.52-25.99-5.95-7.54,3.63-13.38,5.32-13.38,5.32,0,0-14.05,24.92-51.48,24.92-25.59,0-49.62-22.98-49.62-22.98,0,0-1.45-.28-3.82-.94-7.34,3.1-22.33,7.42-36.29,25.61-6.68,8.71-20.67,36.18-20.67,36.18,0,0,10.05,9.7,20.29,13.01,2.32.75,4.54,1.32,6.58,1.75,1.36.29,2.65.52,3.84.69,1.19.18,2.28.31,3.24.4.48.05.94.09,1.36.12l1.01.32s0,0,0-.01h0c-.58,4.02-1.06,8.24-1.4,12.66l-2.05,54.4Z"/>
      <path class="st6" d="M145.25,180.4"/>
      <path class="st3" d="M108.5,144.3c.8,2.76,2.29,7.26,4.66,12.23,3.46,7.27,8.8,14.93,10.67,17.53,1.7-.03,4.99-.1,7.93-.14,1.97-.03,4.51-.13,6.03-.2,1.62-3.26,6.17-12.69,7.86-18.93,1.23-4.54,1.77-9.04,2.01-11.86-8.33-3.87-17.57-6.26-20.2-6.79-1.63.5-12.06,3.83-18.96,8.16Z"/>
      <path class="st1" d="M327.81,173.8c-15.59-15.64-41.58-13.48-53.22-9.68-17.48,5.07-36.55,17.03-36.55,17.03l-5.56,5.82c8.13,3.61,13.57,6.81,13.57,6.81,0,0-1.97,10.85-9.07,23.16-5.07,8.79-12.18,15.23-15.89,18.23l-.21.42c-2.28-.71-4.92-1.96-7.26-3.19l-.31.68c3.07,7.2,6.25,15.51,9.13,24.72l.27.74c-.68,2.65-.88,4.35-.88,4.35,0,0-13.08,8.62-10.21,23.93,2.87,15.31,13.24,18.51,19.78,17.87.27-.03.54-.06.8-.09l.06.34c.57,5.6.92,11.35,1.04,17.22,15.72-7.68,32.55-16.78,46.52-26.6,28.77-20.24,82.45-87.19,47.99-121.75Z"/>
      <path class="st1" d="M82.98,289.09v-.21s1.25-5.42,1.25-5.42c0,0,3.82-11.05-.76-12.96-4.98-2.07-7.05,2.1-8.57,5.53-1.52,3.43-5.14,8-5.14,8,0,0-4.95-.57-10.67,1.33-.36.12-.72.26-1.08.4l-.11.07c-.15-2.07-.75-6.14-3-10.38-.23-.43-.47-.84-.71-1.25l-.07-.88c.34-4.42.82-8.64,1.4-12.66l-1.02-.31c-3.36-.25-8.84-.96-15.02-2.97-8.15-2.64-16.19-9.34-19.12-11.95l-.38.42c-1.58,3.25-8.65,19.11-7.12,38.45,1.58,20,23.46,31.69,26.91,33.41l.26.09c1.51,2.5,4.23,5.66,9.07,8.45,3.89,2.24,11.13,2.54,11.13,2.54,0,0,15.74,12.87,19.81,8,5.91-7.05-10.1-17.91-10.1-17.91l.18-.04c3.52,1.58,18.36,7.77,21.54,1.56,3.62-7.05-13.9-17.18-13.9-17.18l.16-.18c4.13,1.23,18.23,4.75,18.88-4.36.63-8.79-7.93-9.88-13.83-9.61Z"/>
      <path class="st0" d="M191.33,18.34c-8.68-2.62-17.25-.04-23.53,3.07-9.71-4.78-21.79-7.98-36.81-8.79-19.87-1.07-34.73,2.83-45.83,9.56-6.56-2.69-15.51-4.73-24.15-1.35-16.71,6.55-20.57,23.03-14.92,37.56,1.98,5.08,5.82,9.01,9.13,11.64-3.75,19.77-1.29,36.91-1.32,36.47l.02.98c6.46-1.64,16.91-3.67,28.78-3.55,19.74.21,25.71,2.1,25.71,2.1l31.9-1.94s21.66-2.08,42.19.03c10.83,1.11,18.49,2.81,23.33,4.16l.03-.19c.33-2.62,2.95-22.25-2.93-43.05,2.54-2.73,5.05-6.28,6.3-10.47,4.46-14.94-.71-31.06-17.89-36.24Z"/>
      <path class="st5" d="M74.55,33.08c-3.04,3.28-4.37,2.67-9.02,9.46-2.23,3.25-3.81,7.04-5.11,12.22l-.41-.67c-2.43-2.5-7.58-9.25-2.31-17.37,4.46-6.87,13.43-4.82,16.73-3.77l.13.14Z"/>
      <path class="st5" d="M178.81,31.63c3.3,3.02,6.11,6.26,8.38,9.14,2.44,3.1,5.36,6.93,7.62,10.72l.18-.1c2.22-2.69,6.81-9.83.91-17.5-5-6.49-13.78-3.72-16.98-2.41l-.12.15Z"/>
      <path class="st3" d="M75.06,103.83s-4.88-40.02,16.92-39.66c21.79.36,20.53,39.79,20.53,39.79l-6.72,2.09-30.76-1.68"/>
      <path class="st3" d="M180.74,102.77c-.03-7.39-1.32-39.03-20.81-39.35-22.08-.37-17.14,40.75-17.14,40.75,0,0,18.2-1.56,37.93-.59l.02-.81Z"/>
      <g>
        <polygon class="st2" points="143.91 253.63 158.04 253.63 158.08 282.52 144.36 282.38 143.91 253.63"/>
        <g>
          <polygon class="st2" points="97.18 235.17 95.7 269.54 95.13 282.67 109.54 283.18 108.2 235.4 97.18 235.17"/>
          <polygon class="st2" points="112.26 235.27 113.48 274.38 124.66 274.24 123.85 236.08 112.26 235.27"/>
          <polygon class="st2" points="127.71 235.4 128.66 284.91 139.37 283.69 138.96 235.27 127.71 235.4"/>
          <polygon class="st2" points="143.67 248.27 158.42 248.06 158.42 235.13 143.53 235.61 143.67 248.27"/>
          <polygon class="st2" points="187.51 233.37 161.63 234.05 162.98 245.43 189.01 244.75 187.51 233.37"/>
          <polygon class="st2" points="164.07 249.33 165 284.87 176.17 284.46 176.05 248.79 164.07 249.33"/>
        </g>
      </g>
    </g>
    <g>
      <path d="M330.01,171.61c-15.89-15.94-42.37-14.99-56.33-10.45-16.07,4.67-37.11,16.12-45.5,21.05-2.17-.87-4.46-1.73-6.85-2.56-5.56-1.91-11.55-3.28-17.37-4.41.33-.21.67-.42,1-.64,16.4-10.88,24.74-23.25,25.74-36.95,2-27.34-16.47-43.13-21.38-46.99-.21-7.07-1.07-15.61-3.34-24.43,2.95-3,5.78-6.81,7.17-11.45,2.47-8.27,2.14-16.68-.95-23.68-3.43-7.79-9.92-13.31-18.78-15.98-9.31-2.81-19.16.16-26.09,3.46-10.67-4.97-23.03-7.97-36.21-8.67-16.33-.88-30.9,3.18-42.95,10.41-7.13-3.23-19.02-6.63-29.53-2.52-8.62,3.38-14.64,9.41-17.44,17.44-2.51,7.22-2.17,15.63.96,23.68,2.04,5.23,6.75,10.37,10.84,13.88-1.6,7.99-2.18,15.45-2.31,21.36-5.34,4.53-24.57,23.22-17.9,52.1,3.29,14.24,13.2,26.33,28.67,34.97,1.67.93,3.4,1.82,5.15,2.65-8.08,3.94-18.96,10.68-29.12,23.92-15.14,19.73-21.45,37.33-21.45,37.33l.88.85c-2.37,5.26-8.22,20.33-6.78,38.56.76,9.61,6.04,18.88,15.26,26.81,5.47,4.7,10.75,7.6,12.79,8.64,1.78,2.7,4.72,5.86,9.54,8.64.69.4,1.38.75,2.08,1.08.35,4.19.95,8.34.95,8.34l1.64.5c.41.12,38.58,11.67,81.37,11.67,3.38,0,6.79-.07,10.21-.23,50.68-2.3,82.6-19.06,86.38-20.76,4.14-1.86,32.92-18.27,51.23-31.14,11.84-8.33,26.03-22.96,37.05-38.2,9.62-13.31,21.47-33.37,23.21-53.34,1.23-14.06-2.76-25.82-11.86-34.94ZM48.65,57.4c-8.02-16.68,1.88-29.51,13.36-34,10.05-3.93,23.77,3.84,29.34,6.79l-.19-5.16c11.11-6.6,24.59-10.52,39.69-9.71,11.01.59,21.44,2.87,30.66,6.62l.88,5.66c5.31-3.39,17.83-9.76,28.16-6.64,11.81,3.56,21.35,15.09,16.05,32.82-1.85,6.2-8.42,12.04-11.3,14.31l5.55,2.3c3.05,15.68,1.48,30.07.77,34.97-4.46-1.59-10.35-3.03-18.03-3.85-.33-8.57-2.04-27.35-11.01-35.74-3.5-3.27-7.73-4.98-12.58-5.06-4.84-.07-8.99,1.5-12.26,4.69-4.78,4.67-8.96,12.14-9.65,23.35-.25,4.02-.18,7.7-.04,10.43-3.83-.66-7.94-1.03-11.98-1.04l-1.95-.03c-3.2.09-6.09.35-8.7.73-.38-8.29-2.27-24.37-10.95-32.38-3.46-3.19-7.63-4.84-12.42-4.92-4.8-.07-8.87,1.46-12.1,4.56-9.27,8.92-10.03,28.95-9.96,35.77-4.84.54-8.7,1.37-11.76,2.3-.5-4.54-1.45-16.85.96-30.78l3.47-3.71c-3.05-2.04-10.81-5.7-13.99-12.31ZM163.38,74.61c-11.36.71-10.8,20-10.35,26.02-2.94.1-5.52.24-7.59.37-.49-8.97.13-25.51,6.73-31.95,2.03-1.98,4.47-2.94,7.46-2.94.08,0,.16,0,.23,0,3.23.05,5.96,1.16,8.34,3.39,2.64,2.47,4.8,6.31,6.4,11.3-2.35-3.85-5.89-6.52-11.23-6.19ZM175.99,100.89l-4.24-.23c-2.43-.1-4.81-.15-7.12-.18-.31-2.87-.77-10.97,4.07-11.11,6.63-.19,7.35,7.63,7.29,11.52ZM127.46,136.13c2.63.53,11.87,2.92,20.2,6.79-.24,2.82-.78,7.32-2.01,11.86-1.69,6.25-6.24,15.68-7.86,18.93-1.51.07-4.05.17-6.03.2-2.94.04-6.22.11-7.93.14-1.87-2.6-7.21-10.26-10.67-17.53-2.37-4.97-3.86-9.47-4.66-12.23,6.9-4.33,17.33-7.66,18.96-8.16ZM84.93,101.24c-.72,0-1.45,0-2.21,0-1.73,0-3.36.03-4.93.09-.65-8.23-.42-25,6.52-31.68,2.05-1.97,4.54-2.92,7.6-2.86,3.19.05,5.88,1.13,8.23,3.3,2.84,2.62,5.12,6.83,6.74,12.35-2.29-4.41-5.96-7.64-11.8-7.28-11.77.72-10.58,21.34-10.15,26.08ZM102.76,90.98c3.52-.25,5.43,1.94,6.46,4.64.14,1.68.23,3.18.27,4.44-2.37.64-4.41,1.41-6.13,2.26-1.21-.16-2.63-.32-4.29-.47-.4-3.36-.75-10.56,3.69-10.88ZM38.65,144.9c-4.87-21.12,5.56-35.82,12.13-42.66.12,2.76.29,4.49.31,4.84l.02.17c-3.46,1.99-4.09,3.49-4.09,3.49.15-.06,16.61-4.28,35.64-4.09,6.12.06,10.88.29,14.53.58-.92,1.34-1.37,2.7-1.38,3.99-.02,5.6,11.58,7.72,17.91,9.94,4.45,1.56,8.2,3.17,10.35,4.15.03,2.4.07,5.58.08,8.11-4.31,1.15-14.22,4.16-20.46,8.9l-.29.26c.03.15.42,1.89,1.28,4.63-4.09.85-8.92,1.43-14.47,1.42-20.07-.02-32.95-8.28-32.95-8.28.39.56,9.93,13.68,32.95,13.7,1.92,0,3.75-.07,5.51-.19,1.46,2.98,4.06,9.07,7.89,14.48,5.26,7.42,12.34,14.15,26.81,14.15,19.58,0,30.51-11.05,36.25-27.28.84,0,1.67-.02,2.51-.05,1.42-.05,2.84-.14,4.27-.27,21.79-2,30.43-10.97,30.79-11.36,0,0-21.06,5.02-31.28,5.96-7.46.69-14.81.12-21.47-.99.68-4.51.79-7.93.8-8.36l.03-.04c-8.01-4.07-17.6-6.13-22.17-6.95-.02-3-.07-6.83-.1-9.21,1.83-.96,4.17-2.09,6.79-3.15,9.49-3.85,18.43-4.98,18.59-11.1.04-1.44-.55-2.76-1.63-3.96,8.13-.09,18.58.08,28.4,1.09,19.71,2.02,32.2,6.52,32.28,6.56,0,0-1.29-2.22-5.97-4.88v-.07c.07-.48.6-4.25.78-10.03,6.53,6.12,16.71,18.84,15.89,38.19-1.12,26.48-35.98,38.31-42.27,40.26.08-2.19-.19-3.6-.19-3.6-.11.3-10.95,29.79-52.35,30.2-.25,0-.48,0-.73,0-31.88,0-61.47-33.92-61.47-33.92,1.56,2.8,4.35,7.13,8.34,11.92-8.08-2.31-32.03-11.2-37.88-36.57ZM132.68,216.21c.38,0,.77,0,1.17-.02,11.68-.33,17.53-5.96,20.45-11.16,3.03-1.03,5.79-2.2,8.29-3.48-.31,2.05-1.17,4.39-3.43,7.97-4.52,7.18-12.6,11.29-24.01,12.2-10.47.83-18.84-1.38-24.86-6.59-4.99-4.31-7.33-9.36-8.43-13.01,3.28,1.66,6.78,3.09,10.49,4.2,2.56,4.4,8.18,9.88,20.33,9.88ZM120.54,208.18c2.93.45,5.96.71,9.12.71.26,0,.53,0,.79,0,5.3-.05,10.12-.58,14.52-1.41-2.64,1.84-6.27,3.16-11.27,3.3-6.55.18-10.62-1.04-13.15-2.59ZM24.53,238.83c3.5,2.54,10.91,7.71,17.15,10.71,4.66,2.24,9.19,3.44,12.65,4.09-.19.85-.38,1.71-.56,2.58-3.29-.33-7.82-1.07-12.86-2.71-7.43-2.41-14.95-8.57-17.92-11.18.37-.89.87-2.07,1.54-3.5ZM77.97,335.07c-.18.21-2.26.57-7.94-2.75-4.22-2.47-7.46-4.66-7.5-4.69-.07,0-6.59-.54-12.08-3.71-8.49-4.9-9.05-11.84-9.09-12.09l-3.17,1.5-.6.08c-6.88-4.13-20.85-14.32-22.04-29.31-1.21-15.31,3.25-28.49,5.66-34.35,4.02,3.27,10.61,8.02,17.42,10.22,5.46,1.77,10.37,2.57,13.95,2.94-.4,2.62-.72,5.36-.98,8.17-2.26-.61-4.3-.87-4.3-.87,2.21,1.99,3.96,4.18,5.2,6.51,2.06,3.87,2.57,7.61,2.69,9.38-3.79,3.48-4.86,9.79-4.86,9.79.04-.05,4.63-4.81,9.61-6.47,5.03-1.68,9.47-1.21,9.5-1.21l1.5.17.94-1.18c.16-.2,3.85-4.89,5.5-8.59,2.11-4.76,3.16-4.92,5.05-4.13,1.14.47.54,5.79-.76,9.57l-1.35,5.74c-2.28.55-3.97,1.14-4.4,1.23l2.22,2.84c2.65-.58,10.97-1.55,14.4,1.43.77.66,1.76,1.87,1.56,4.69-.11,1.56-.76,2.18-1.32,2.55-2.34,1.54-6.84,1.22-10.71.35-1.77-1.05-3.13-1.55-3.51-1.18l-1.79,1.61-2.16,1.72c.42.14,2.12.98,4.38,1.85,5.84,3.69,11.53,9.8,10.25,12.29-1.14,2.22-11.17.54-20.78-4.06l-.28,5.83c.08.04.17.08.26.12l-.04.06c2.45,1.66,9.59,7.38,10.18,11.66.12.89-.07,1.59-.64,2.26ZM227.8,323.43c-2.13,1.08-35.95,17.9-84.01,20.09-22.88,1.04-45.2-1.73-61.86-4.77.06-.07.13-.13.19-.2,1.55-1.85,2.19-4.09,1.86-6.5-.33-2.34-1.57-4.65-3.16-6.75,1.64.32,3.29.53,4.86.53,3.62,0,6.81-1.07,8.4-4.17,1.91-3.73.44-8.02-4.35-12.77,2.22-.17,4.34-.69,6.04-1.81,2.24-1.48,3.54-3.8,3.75-6.7.35-4.83-1.67-7.65-3.42-9.17-2.58-2.24-6.38-2.65-9.99-2.37l.73-3.15c.86-2.54,4.14-13.51-2.33-16.21-7.61-3.16-10.87,4.17-12.1,6.93-.94,2.12-2.85,4.83-3.96,6.32-1.73-.04-4.7.08-8.09.93-.36-2.48-1.19-5.91-3.09-9.48-.12-.23-.3-.44-.5-.65h.01c3.09-39.65,17.24-63.41,17.38-63.65,0,0-11.37,12.9-18.2,37.2-3.13-.57-7.27-1.65-11.53-3.7-6.14-2.95-13.8-8.38-16.87-10.62,3.03-5.61,7.57-13.02,14.22-21.68,11.39-14.85,23.42-20.82,31.44-24.3,5.52,2.26,10.48,3.9,13.03,4.7,2.75,2.42,5.8,4.76,9.11,6.91.82,4.62,3.4,13.93,11.3,20.8,6.22,5.41,14.36,8.13,24.24,8.13,1.51,0,3.07-.06,4.66-.19,26.05-2.1,31.78-19.02,32.86-29.01,3.06-2.04,5.62-4.16,7.72-6.18,1.9-1.83,3.28-3.77,4.29-5.67,2.19-.75,8.94-3.14,16.21-6.88,7.49,1.33,15.67,2.88,22.9,5.37,5.11,1.76,9.64,3.59,13.38,5.23-.42,2.25-2.35,10.8-8.96,21.57-3.08,5.02-7.59,9.69-11.9,13.48-8.44-14.56-16.44-20.51-16.44-20.51.14.21,14.61,24.71,24.78,56.84-.04.31-.07.59-.11.82-3.29,2.55-14.06,10.67-11.35,25.1,2.8,14.99,12.56,20.16,20.81,20.16h.01c.47,4.83.78,9.11.87,14.11l-2.85,1.86ZM218.97,231.96c-.93-.4-1.93-.87-2.99-1.41,4.83-4.14,10.16-9.51,13.8-15.45,6.19-10.1,8.58-18.43,9.42-22.17,1.15.58,2.13,1.09,2.89,1.51-.87,3.52-3.24,11.59-8.33,20.42-4.67,8.11-11.23,14.17-14.79,17.1ZM214.29,286.31c-2.49-13.29,8.57-20.86,9.04-21.17l1.05-.7.15-1.25c0-.05.65-5.29,3.45-11.48,3.79-8.38,11.16-12.8,11.22-12.84,3.12-.5,5.21-1.08,5.41-1.14,0,0-9.51-1.59-18.2-3.57,3.9-3.6,9.02-9.06,12.94-15.87,4.7-8.14,7.21-15.62,8.42-20,10.2,5.64,28.2,16.98,31.58,25.44,4.51,11.28-7.54,23.77-15.51,32.04-5.47,5.68-14.36,10.67-17.51,12.35-1.17-2.25-2.19-3.78-2.28-3.91,0,0,1.7,13.53.41,17.7-1.16,3.75-3.91,6.12-3.93,6.14l.04.05c-3.36-.53-6.61,1.34-6.61,1.34.06.02,6.45,2.27,7.73,6.84l4.49-1.26.96,1.26c1.43-1.16,4.29-3.88,5.53-2.81.41.35.88,1.14.85,2.17-.04,1.33-.88,2.65-2.42,3.82-3.28,2.48-8.21.11-8.25.09l-1.29-.63-1.25.69s-3.35,1.81-9.15,2.38c-2.29.22-13.82.51-16.85-15.67ZM260.5,199.55c-.45-.29-.9-.57-1.35-.85.49-4.36.94-8.21,1.38-11.4,5.11.1,11.08.27,17.41.5-.35,3.69-.76,7.75-1.25,12.11-5.24-.2-10.66-.32-16.2-.36ZM275.99,205.92c-.19,1.5-.38,3.04-.59,4.6-1.83-1.63-3.82-3.23-5.87-4.76,2.17.04,4.33.09,6.45.16ZM299.99,207.23c-.64,4.17-1.36,8.54-2.18,13.07-4.53-.36-8.58-.57-14.55-.84-.59-1-1.3-2.02-2.11-3.03.48-3.65.87-7.05,1.21-10.28,6.19.27,12.09.64,17.63,1.08ZM282.96,200.18c.41-4.24.77-8.22,1.17-12.14,6.11.25,12.37.54,18.34.87-.44,3.8-.97,7.96-1.6,12.4-5.63-.43-11.62-.82-17.9-1.13ZM285.59,226.46c3.79.17,7.46.36,10.96.58-.77,3.98-1.62,8.05-2.54,12.2-3.3-.18-6.81-.35-10.54-.5,1.73-3.94,2.64-8.08,2.12-12.27ZM292.64,245.17c-.84,3.56-1.75,7.17-2.71,10.79-5.12-.32-10.35-.53-15.71-.64.27-1.22.54-2.46.81-3.73,1.86-2.21,3.69-4.58,5.29-7.07,4.4.16,8.51.38,12.32.64ZM288.2,262.24c-1.08,3.79-2.22,7.6-3.44,11.41-.46-.1-.93-.17-1.44-.2-4.19-.18-8.71-.28-13.47-.31.97-3.64,1.91-7.31,2.83-11.16,5.36-.02,10.55.06,15.51.26ZM250.05,280.79c0-.22,0-.43,0-.65,1.14-1.17,3.59-2.97,4.68-2.26.96.61,1.08,1.74.93,2.81-1.81-.61-3.81-.41-5.62.11ZM254.26,288.2c-2.36-.91-5.03-.36-7.31.68.23-.33.47-.68.7-1.05h0c2.33-1.54,5.72-2.67,6.61-1.83.45.43.34,1.29,0,2.21ZM248.9,274.1c-.11-.34-.23-.68-.36-1.02,2.69-1.41,10.41-5.66,16.51-11,.34,0,.68-.02,1.01-.02-.9,3.72-1.86,7.43-2.88,11.1-1.86.01-3.74.04-5.65.07-2.91-1.77-6.14-.75-8.63.87ZM335.69,206.01c-2.78,31.87-35.85,71.67-57.65,87-12.02,8.45-27.27,15.47-42.29,21.67-.14-2.6-.35-5.2-.58-7.8,3.03-.58,5.25-1.39,6.53-1.94,2.48.91,8.07,2.33,12.67-1.16.66-.5,1.24-1.04,1.77-1.6.96-.54,2.04-1.28,3.14-2.3,2.24.03,4.4.06,6.46.07,0,0-.55-2.85-2.84-4.71.92-1.62,1.76-3.55,2.42-5.85.91-3.17,1.78-6.21,2.62-9.21,5.17-.25,10.13-.38,14.79-.35-.83,2.43-1.68,4.85-2.57,7.26,0,0,3.33-1.25,7.29-7.17,1.49.05,2.94.12,4.35.21,0,0-.68-1.88-2.29-3.65,1.86-3.44,3.75-7.96,5.43-13.87,2.89.19,5.68.42,8.35.71,0,0,.21-5.4-6.74-6.76.97-3.8,1.81-7.4,2.57-10.86,4.99.45,9.4.96,13.26,1.5,0,0-.58-6.86-10.47-7.47-.5-.03-1.01-.06-1.52-.09.84-4.18,1.59-8.19,2.31-12.16,5.94.43,11.26.92,15.71,1.45-.84,3.87-1.74,7.73-2.69,11.58,0,0,6.4-6.1,8.61-10.77,1.18.19,2.26.38,3.2.58,0,0,.06-1.68-2.3-3.64,1.12-5.38,2.13-10.78,3.03-16.16.71.12,1.43.23,2.1.35,0,0-.39-1.4-1.66-3.03.01-.08.03-.16.04-.24.69-4.34-4.3-13.76-4.3-13.76-.42,3.32-.89,6.65-1.4,9.99-1.14-.41-2.43-.73-3.93-.88-3.63-.36-7.56-.73-11.73-1.09.79-4.98,1.25-9.13,1.45-12.57,5.99.37,11.48.76,15.93,1.17,0,0-2.35-5.57-11.87-6.35-1.33-.11-2.64-.22-3.95-.32-.33-12.13-4.82-11.34-4.82-11.34-.24,2.95-.57,6.61-1.02,10.87-6.53-.52-12.77-.99-18.5-1.41-.09-9.12-5.37-10.02-5.37-10.02-.16,2.47-.39,5.72-.71,9.58-7.21-.52-13.3-.93-17.74-1.21-1.19-2.94-4.64-3.09-4.64-3.09,0,.07-.07,1.06-.22,2.79-1.66-.1-2.69-.15-2.95-.15l-1.88,7.42c1.24,0,2.64,0,4.16.02-.25,2.47-.55,5.35-.92,8.57-2.11-1.23-3.96-2.26-5.33-3.01l.07-.38-1.63-.96c-.28-.17-4.51-2.64-11.01-5.67,7.36-4.49,23.93-14.3,39.03-18.67l.1-.03c5.26-1.71,14.29-3.22,23.88-2.31,7.55.72,18.23,3.25,26.19,11.23,7.74,7.76,11.13,17.86,10.07,30.02ZM303.89,220.83c.65-3.62,1.32-7.27,2.06-11.04.14-.69.26-1.36.39-2.02,5.79.54,11.07,1.16,15.77,1.8-.78,4.69-1.65,9.38-2.61,14.07-3.03-1.06-7.2-2-12.95-2.56-.94-.09-1.81-.18-2.67-.26Z"/>
      <path d="M193.73,35.58c5.76,7.49-.75,13.12-1.52,13.85l3.65,5.1c3.89-3.66,9.37-13.04,2.23-22.31-3.17-4.12-8-5.85-13.98-5-4.18.6-7.5,2.29-7.64,2.36l2.58,3.89c1.93-.86,9.95-4.06,14.68,2.1Z"/>
      <path d="M74.47,34.94l2.26-4.09c-.14-.06-3.59-1.48-7.81-1.74-6.03-.36-10.71,1.74-13.54,6.11-6.37,9.82-.16,18.72,4.02,22.06l3.22-5.38c-.82-.67-7.77-5.76-2.63-13.69,4.23-6.52,12.47-3.97,14.46-3.27Z"/>
      <path d="M156.84,45.98c.1,0,.2,0,.3,0,11.07.2,17.01,8.49,17.01,8.49l2.49-.71c-.1-.34-1.07-3.47-3.9-6.66-2.66-2.99-7.5-6.59-15.49-6.73-.14,0-.27,0-.41,0-12.17,0-17.71,9.68-18.94,14.85l5.55,1.29c.11-.43,2.74-10.54,13.39-10.54Z"/>
      <path d="M80.8,56.38c.1-.43,2.64-10.53,13.38-10.53.1,0,.2,0,.3,0,11.07.19,16.31,8.69,16.31,8.69l3.19-.9c-.1-.35-1.07-3.47-3.9-6.65-2.66-2.99-7.5-6.59-15.49-6.73-.13,0-.27,0-.41,0-12.17,0-17.71,9.68-18.94,14.85l5.56,1.28Z"/>
      <rect x="127.55" y="140.72" width="2.2" height="27.85" transform="translate(-4.54 3.89) rotate(-1.7)"/>
    </g>
  </g>
</svg>