<?xml version="1.0" encoding="UTF-8"?>
<svg id="Layer_1" xmlns="http://www.w3.org/2000/svg" version="1.1" viewBox="0 0 406 360">
  <!-- Generator: Adobe Illustrator 30.2.1, SVG Export Plug-In . SVG Version: 2.1.1 Build 1)  -->
  <defs>
    <style>
      .st0 {
        fill: none;
      }

      .st1 {
        fill: #785032;
      }

      .st2 {
        fill: #750014;
      }

      .st3 {
        fill: #fff;
      }

      .st4 {
        fill: #ebd7bd;
      }
    </style>
  </defs>
  <g>
    <g>
      <path class="st3" d="M287.88,334.37s-.09.02-.14.04c.3.03.6.06.89.07l-.76-.11Z"/>
      <path class="st3" d="M291.78,201.67c-11.29-10.11-26.08-17.79-39.93-23.4l-6.9-2.15-9.15-3.66-17.22,3.21-88.03,7.83c-8.22,6.91-18.68,17.43-24.2,25.99-.15.23-.72,1.19-.72,1.19l2.65,1.41s-.21.27-.44.57l.43.03c2.93.41,11.11,3.27,15.72,9.25l-.06.51c-6.98,23.15-16.35,63.96-9.07,98.91,1.16,5.56,2.25,13.79,2.25,13.79l3.42,1.51c15.32,5.81,82.26,21.61,167.22-2.26-3.69-.36-8.47-1.63-12.9-5.26-7.5-6.15-7.22-14.07-5.77-19.47l-.34-1.08c-6.84-26.64,6.07-48.75,9.73-54.29l.05-.25c-2.53-1.92-5.02-4.03-7.45-6.23l.16-.75c19.04-10.66,28.26-28.33,30.65-33.54l.29.11,1.21-2.47s-7.92-6.19-11.62-9.51Z"/>
    </g>
    <path class="st1" d="M106.97,214.01c-1.18,1.98-2.43,3.81-3.41,5.9l-.48.37c-8.25-5.69-17.67-8.67-23.51-10.1l-.15-.53c8.84-12.59,4.72-23.04,4.72-23.04,0,0,13.11-22.07-.41-23.72-6.4-.78-9.6,2.92-11.19,7.05l-.36-.73s-4.77-21.64-12.36-21.04c-5.35.43-6.27,7.69-5.27,13.57,1.01,5.87,2.33,17.78,2.33,17.78,0,0-11.46-22.38-21.08-17.21-8.15,4.38.71,14.8.71,14.8l4.53,13.38-.09.22c-3.52-2.24-18.28-11.19-22.2-6.64-6.17,7.15,4,14.05,4,14.05l11.54,9.49s2.31,18.29,19.68,23l.61.17c3.83,10.11,11.93,25.89,26.8,33.22,15.33,7.55,26.31,6.2,31.86,4.5,0,0,1.98-7.16,3.07-14.87,1.09-7.71,6.51-26.82,6.51-26.82l.55-7.06-11.18-5.32-5.22-.44Z"/>
    <path class="st1" d="M165.93,196c2.86,3.68,6.62,7.09,10.26,5.98,4.47-1.37,9.17-6.89,12.12-10.94l-22.38,4.95Z"/>
    <path class="st1" d="M375.03,175.71c-15.83-11.63-38.38-6.21-48.1-1.29-14.68,6.82-29.82,19.93-29.82,19.93l-5.18,7.42,9.92,9.5,3.68,6.08c-.53-.7-1.08-1.4-1.66-2.12-.25-.3-1.21-1.15-1.57-1.46l-.5-.02c-2.54,5.45-11.76,22.81-30.56,33.34l-.4.53c2.45,2.23,4.97,4.38,7.53,6.33l.27.11c-3.41,5.1-16.85,27.48-9.89,54.55l.4.85c-1.5,5.4-1.9,13.47,5.71,19.7,8.88,7.29,19.24,5.07,19.24,5.07,0,0,5.32,4.63,15.09-3.78,7.72-6.65,9.78-12.43,8.79-15.49,11.01-8.02,22.19-16.89,31.38-25.72,22.55-21.69,60.66-87.82,25.68-113.53ZM310.22,276.46"/>
    <path class="st1" d="M268.34,102.32c-.45-5.54-.56-13.42-3.62-24.02-.74-2.56-1.83-5.52-3.27-8.75,6.67-10.45,15.96-30.32,2.3-44.9-15.06-16.06-36.45-7.79-46.94-2.13-4.71-2.3-9.76-4.24-15.2-5.68-8.71-2.3-11.92-4-23.49-3.86-15.07.18-27.16,4.51-36.84,11.18.32-1.79.38-2.85.38-2.85,0,0-24.18-10.39-35.75,4.68-15.31,19.93,2.71,37.74,2.71,37.74,0,0,1.81-1.05,4.53-2.88-9.02,21.12-10.46,41.24-10.46,41.24l.37.87c4.11-.5,7.07-.19,9.03.26l.79-.51c6.43-.55,15.85-.8,28.65.21.12.01.24.02.37.03l8.4,1.29s18.07-4.31,47.76-1.92c29.69,2.39,36.41,5.49,36.41,5.49l.89-.07c7.44-2.13,16.42-5.54,25.3-3.04,3.01.85,7.96.7,7.71-2.4Z"/>
    <path class="st4" d="M114.14,52.95c-.26-.08-.4-.14-.4-.14,0,0-5.61-6.05.9-15.92,5.64-8.56,12.68-5.96,13.9-5.43l-14.4,21.49Z"/>
    <path class="st4" d="M229.97,105.63s12.14-9.84,25.87-6.83c15.01,3.29,30.55,17.11,19.54,45.32-10.07,25.78-52.34,29.52-52.34,29.52l-2.16-.1c-14.41,10.55-37.44,23.55-61.55,21.56-26-2.15-38.81-21.43-42.22-27.51l-.1-.17c-3.5-1.06-16.3-6.12-23.78-24.88-8.73-21.88,7.47-38.82,7.47-38.82l5.16.27,21.28,1.61,34.89-3.35,34.06-.22,26.97,1.24,6.9,2.36Z"/>
    <path class="st3" d="M204.93,101.52c-.33-.03-.67-.05-1.01-.08-18.13-1.4-31.06-1.1-39.46-.46v.04s2.38-42.01,23.69-39.58c18.02,2.06,16.78,40.11,16.78,40.11v-.03Z"/>
    <path class="st3" d="M142.02,101.63c-.24-.02-.49-.04-.73-.06-13.05-1.08-22.38-.59-28.44.17v.04s2.35-41.01,17.68-38.97c12.96,1.72,11.48,38.85,11.48,38.85v-.04Z"/>
    <path class="st4" d="M248.14,58.17c-4.14-10.55-11.12-16.87-16.69-21.08l1.44-1.13s13.55-9.38,21.91-1.61c8.84,8.23-4.08,20.68-4.08,20.68l-2.58,3.15Z"/>
    <path class="st0" d="M215.67,22.29c24.5,10.85,37.69,30.75,44.79,48.66"/>
    <path class="st3" d="M130.54,134.29c-1.15.58-3.27,2.12-4.99,3.49.29,3.71,1.1,12.14,3.1,19.92,1.34,5.22,3.7,9.93,4.75,11.99l16,.24c1.57-3.13,5.22-13.06,6.66-30.48-5.42-1.84-17.88-5.69-25.53-5.15Z"/>
    <g>
      <polygon class="st2" points="184.55 246.15 198.67 246.15 198.72 275.04 185 274.91 184.55 246.15"/>
      <g>
        <polygon class="st2" points="137.81 227.69 136.33 262.07 135.77 275.2 150.18 275.71 148.83 227.93 137.81 227.69"/>
        <polygon class="st2" points="152.9 227.79 154.12 266.91 165.29 266.77 164.48 228.61 152.9 227.79"/>
        <polygon class="st2" points="168.35 227.93 169.29 277.44 180 276.22 179.59 227.79 168.35 227.93"/>
        <polygon class="st2" points="184.3 240.79 199.05 240.59 199.05 227.66 184.17 228.14 184.3 240.79"/>
        <polygon class="st2" points="228.14 225.9 202.26 226.57 203.62 237.96 229.64 237.28 228.14 225.9"/>
        <polygon class="st2" points="204.7 241.86 205.64 277.4 216.81 276.99 216.68 241.32 204.7 241.86"/>
      </g>
    </g>
  </g>
  <g>
    <path d="M391.82,202.59c-.83-12.53-5.93-22.32-15.16-29.11-16.13-11.86-39.28-7.43-50.94-1.55-14.68,6.83-29.44,19.47-35.48,24.86-12.8-10.53-29.42-19.43-44.62-25.67.22-.07.43-.15.65-.22,16.18-5.69,28.65-15.79,33.04-27.03,5.08-13,3.62-23-1.18-31.97-1.5-2.81-3.5-5.33-5.89-7.52-1.06-7.06-3.89-19.84-8.09-31.36,4.24-5.72,10.66-16.4,10.8-28.6.1-8.49-3.38-16.17-10.35-22.84-9.67-9.25-22.62-11.7-37.46-7.07-4.85,1.51-8.96,3.17-12.06,4.55-11.56-5.05-22.84-9.09-39.95-8.94-13,.12-24.66,3.37-34.77,9.6-2.23-.77-7.29-2.32-13.22-2.75-10.79-.78-19.27,2.52-24.46,9.57-14.8,20.09.52,37.78,3.36,40.77-5.49,16.27-6.92,30.62-7.24,34.79-1.62,1.76-16.79,18.99-7.87,41.35,7.32,18.34,19.49,24.31,24.39,26.02,1.79,3.1,5.33,8.44,10.95,13.64-8.74,7.89-17.7,17.93-22.19,24.89-.16.25-.78,1.29-.78,1.29l-1.44,2.44,2.5,1.33h.01c-.21.35-.42.7-.63,1.04-.8,1.3-1.62,2.63-2.36,4.09-2.86-2.95-6.41-5.73-10.55-7.34-3.03-1.18-5.45-1.99-7.34-2.55,5.71-9.88,4.44-18.23,3.61-21.38,2.05-3.71,7.77-15.14,4.45-21.9-.93-1.91-2.99-4.29-7.46-4.84-4.13-.51-7.6.5-10.29,2.99-.11.1-.2.21-.31.32-.55-1.81-1.25-3.93-2.1-6.05-3.38-8.42-7.22-12.36-11.75-11.99-2.26.18-4.2,1.23-5.59,3.02-3.4,4.38-2.49,11.6-2.13,13.71.28,1.63.59,3.74.88,5.94-3.75-4.78-7.41-7.75-10.89-8.84-2.56-.8-5.1-.58-7.35.62-3.28,1.76-4.38,4.29-4.72,6.1-.99,5.23,3,10.78,4.3,12.43l2.15,6.34c-6.72-3.57-15.66-6.98-19.55-2.48-2.05,2.37-2.93,5.09-2.57,7.88.72,5.49,5.96,9.4,6.98,10.11l10.67,8.78c.82,4.24,4.79,19.12,20.59,23.9.7,1.67,1.72,3.89,3.17,6.83,6.24,12.57,14.76,21.78,24.63,26.65,5.22,2.57,14.15,6.11,23.77,6.11,2.14,0,4.32-.18,6.5-.58-1.69,16-1.72,33.32,1.75,49.94,1.13,5.4,2.21,13.51,2.22,13.59l.21,1.55,4.94,2.13h0c11.16,4.24,38.87,10.69,76.42,10.69,26.54,0,58-3.23,91.99-12.72,2.42.2,4.39.05,5.55-.1,1.02.54,2.66,1.14,4.85,1.14,3.13,0,7.39-1.24,12.57-5.7,5.97-5.14,9.5-10.52,9.92-15.04,9.67-7.39,19.61-15.87,30.38-26.24,9.28-8.92,19.77-23.71,27.39-38.6,6.66-13.01,14.35-32.25,13.17-50.03ZM103.51,53.57c-3.26-8.2-2.08-16.21,3.52-23.8,7.03-9.54,20.38-7.87,27.59-6.07-2.24,1.74-4.4,3.65-6.46,5.73-3.96-1.25-11.05-1.01-16.22,7.17-5.92,9.37-2.67,15.88-.99,18.26-.37.8-.74,1.61-1.1,2.44-.61,1.4-1.18,2.8-1.73,4.2-1.41-1.78-3.26-4.51-4.62-7.93ZM123.71,34.33c-3.51,4.22-6.72,8.97-9.59,14.25-.35-2.11-.06-5.16,2.42-9.08,2.42-3.84,5.11-4.97,7.17-5.17ZM114.84,59.45c12.53-28.88,32.83-43.66,60.33-43.91,14.01-.12,23.95,2.78,33.56,6.72l.92,7.21c.08-.06,9.2-6.73,19.23-9.83,12.97-4.01,23.72-2.04,31.96,5.85,5.83,5.58,8.75,11.93,8.68,18.84-.17,15.44-17.34,31.55-17.49,31.69l7.88,1.31c2.95,8.69,4.47,16.59,5.25,22.16-2.7-1.38-5.65-2.45-8.78-3.14-12.12-2.66-22.87,3.72-26.6,6.31-3.74-.81-10.23-1.88-21.04-2.82-.19-8.73-2.18-39.03-20.61-40.79-4.84-.46-9.11.84-12.79,3.83-10.67,8.67-13.04,30.03-13.54,36.87-5.23.59-9.04,1.28-11.24,1.73-1.7-.91-3.59-1.7-5.59-2.35-.19-10.47-1.95-36.13-14.4-37.48-3.45-.38-6.53.89-9.22,3.74-8.01,8.49-10.08,29.66-10.54,36.41-1.66-.21-3.81-.28-6.57.01.49-5.63,2.64-24.06,10.59-42.38ZM192.08,86.21c5.63-.38,7.69,9.93,8.09,12.3-4.75-.22-9.32-.34-13.69-.37-.05-2.69.21-11.57,5.6-11.94ZM178.21,98.23c-3.37.09-6.62.24-9.7.46.81-8.94,3.75-25.28,11.32-31.44,2.15-1.74,4.48-2.52,7.14-2.38.17,0,.35.02.53.04,4.52.43,7.62,4.27,9.74,8.97-2.12-1.28-4.77-1.62-8.11-.47-8.07,2.77-10.32,18.25-10.92,24.82ZM130.54,134.29c7.65-.54,20.1,3.31,25.53,5.15-.1,1.24-.22,2.43-.34,3.59-.39,3.65-.87,6.92-1.4,9.84-.02.12-.04.25-.06.37-.11.6-.22,1.17-.34,1.73-.03.17-.07.35-.1.52-.11.52-.22,1.03-.33,1.52-.04.19-.08.39-.13.58-.11.47-.21.92-.32,1.36-.05.2-.1.4-.14.59-.1.41-.21.81-.31,1.21-.05.2-.11.4-.16.59-.1.37-.2.72-.3,1.07-.06.2-.11.39-.17.58-.09.32-.19.63-.28.93-.06.2-.12.38-.18.57-.09.27-.17.54-.26.8-.06.19-.12.36-.18.54-.08.23-.16.46-.24.68-.07.18-.13.36-.2.53-.07.19-.14.38-.21.55-.07.18-.14.35-.21.51-.06.14-.12.29-.17.41-.08.19-.15.35-.23.52-.04.09-.08.19-.12.27-.11.24-.21.45-.31.64l-16-.24c-.85-1.67-2.56-5.08-3.89-9.1-.31-.94-.6-1.9-.85-2.89-.13-.52-.26-1.05-.38-1.57-.04-.17-.08-.34-.12-.51-.08-.36-.16-.71-.24-1.07-.04-.2-.09-.4-.13-.6-.07-.32-.14-.65-.2-.97-.04-.21-.08-.43-.12-.64-.06-.31-.12-.62-.17-.93-.04-.21-.08-.43-.11-.64-.05-.31-.11-.61-.16-.92-.04-.21-.07-.42-.1-.62-.05-.31-.1-.61-.14-.91-.03-.2-.06-.4-.09-.59-.05-.31-.09-.62-.13-.92-.03-.18-.05-.36-.08-.53-.05-.35-.09-.7-.14-1.04-.41-3.12-.65-5.77-.78-7.46,1.72-1.37,3.84-2.91,4.99-3.49ZM123,98.44c-2,.47-3.85,1.12-5.46,2.01-.5.05-1.02.09-1.5.15.73-8.86,3.13-24.9,8.75-30.85,1.49-1.58,3.09-2.31,4.89-2.21.12,0,.23.02.35.03,2.92.32,5.08,3.61,6.62,8.3-1.46-1.04-3.28-1.23-5.56-.13-5.4,2.6-7.39,15.64-8.08,22.7ZM136.44,89.68c1.25-.12,2.25.67,3.04,1.88h0c1.19,1.83,1.9,4.62,2.3,6.7-1.88-.42-3.82-.69-5.76-.76-1.2-.05-2.4-.06-3.6-.05.29-3.23,1.2-7.48,4.03-7.76ZM118.43,164.72l-.67.31c-2.94-.88-15.06-5.51-22.2-23.42-6.44-16.15,1.59-29.31,5.29-34.17,5.32-.61,9.33-.1,10.89.17-.13.5-.25,1.01-.32,1.56-1.26,8.93,12.64,15.34,16.43,16.92.02,1.57.12,3.22.39,4.7-2.76,1.49-7,5.32-7.5,5.75.02.28.3,3.52.87,7.73-8.3,4.45-18.55,2.65-18.55,2.65.28.22,4.79,3.64,11.1,3.97.41.02.83.03,1.25.02.49.48,5.7,5.61,9.86,9.85,2.64,7.26,5.38,12.12,5.5,12.34l.85,1.49,5.15.08c3.16,2.78,7.22,4.25,12.58,4.54.8.04,1.64.06,2.5.05,9.71-.18,17.35-4.9,28.6-14.78,5.83-5.12,10.55-11.7,12.88-15.17,32.84-2.03,44.71-14.84,44.71-14.84-22.34,11.31-60.14,11.61-76.09,6.57.12-1.32.23-2.67.32-4.09-.7-.26-16.54-5.95-27.97-6.69-.26-1.5-.43-3.91-.43-6.29,8.73-3.33,23.46-6.33,23.46-6.33,0,0,1.52-1.95,1.35-7.38-.04-1.39-.82-2.88-2.14-4.34,2.37-.37,5.33-.76,8.83-1.1v.06c5-.48,12.47-.92,22.45-.83,2.79.06,5.71.17,8.77.35,28.36,1.69,38.93,5.07,38.97,5.08l-.88-4.02c4.21-2.5,12.14-6.1,20.63-4.23,8.24,1.81,14.95,6.55,18.41,13.02,4.08,7.63,3.86,17.36-.66,28.94-7.76,19.86-36.74,25.96-46.78,27.49,5.48-6.24,7.94-11.61,7.94-11.61-.36.37-36.46,36.71-74.67,33.53-29.02-2.39-41-27.63-41.11-27.88ZM160.9,197.71c.24.01.48.02.73.03,2.78,3.53,6.74,6.03,11.3,6.3.33.02.66.03.99.03,7.22,0,14.11-5.78,19.41-12.21,5.45-2.13,11.29-4.95,17.49-8.64-6.98,11.63-20.19,27.41-40.2,26.75-8.2-.27-13.55-5.29-16.02-12.93,1.47.24,2.98.43,4.54.56.57.05,1.16.09,1.77.12ZM168.86,197.62c4.06-.29,8.61-.97,13.6-2.25-2.82,2.1-5.93,3.45-9.2,3.26-1.72-.1-3.17-.44-4.4-1.01ZM112.04,206.3c2.75.71,8.26,2.96,11.92,6.95-.3.84-.62,1.76-.96,2.76-2.54-2.1-5.27-3.58-7.42-4.53-1.58-.7-3.95-1.63-6-1.95.69-1.01,1.52-2.09,2.47-3.23ZM111.13,266.28c-5.27,1.3-15.07,1.95-28.55-4.7-21.36-10.52-30.34-41.71-30.34-41.71l-1.27,6.79c-12.01-5.47-13.91-18.77-13.99-19.38l-.13-1.07-12.37-10.18-.19-.15c-1.2-.83-4.4-3.59-4.77-6.42-.16-1.24.26-2.42,1.29-3.61,1.46-1.7,13.48,2.57,21.81,8.1l.6-5.01-4.3-13.2-.34-.39c-1.34-1.58-3.95-5.69-3.45-8.33.11-.61.44-1.52,1.95-2.33.97-.52,1.97-.59,3.16-.22,5.73,1.79,14.81,15.13,16.82,19.05l2.51-4.31c-.05-.49-1.34-12.05-2.35-17.93-.68-3.97-.25-7.77,1.07-9.47.46-.6,1-.89,1.74-.95.04,0,.07,0,.11,0,2.88,0,7.58,9.78,9.7,18.57-1.36,3.78-1.57,7.66-1.59,9.39l-2.21,3.31c-8.89,2.49-12.15,10.74-12.62,14.92,0,0,6.57-8.1,14.87-9.89l1.07-.23,4.36-6.53-.03-.88c-.09-2.39.41-9.28,3.78-12.37,1.49-1.37,3.44-1.88,5.95-1.58,2.24.27,2.93,1.18,3.25,1.84,1.78,3.63-1.76,12.6-4.84,17.8l-.66,1.14.46,1.22c.14.37,3.19,8.8-3.69,19.43l-4.33,4.71c13.09,4.06,28.14,5.4,36.11,18.11,0,0-1.64-3.36-4.68-7.35.94-1.77,2.5-4.21,3.3-5.51.28-.44.54-.89.81-1.34,2.77.74,8.14,2.97,11.74,6.85-3.34,10.72-7.45,26.27-9.75,43.79ZM119.56,333.1c-.38-2.72-1.19-8.16-2.05-12.28-10.58-50.75,16.85-120,17.11-120.64l-8.12,6.95c-2.78-2.52-5.91-4.23-8.32-5.29-.49-.22-1.01-.44-1.53-.64,4.42-4.58,9.81-9.48,14.88-13.73,4.65,3.37,10.3,6.37,17.07,8.25,3.29,10.89,11.01,19.31,21.83,19.67.47.02.94.02,1.41.02,14.18,0,27.26-7.21,37.9-20.92,4.16-5.36,7.97-11.66,10.72-16.62,3.02-.65,7.91-1.76,13.2-3.17,17.63,6.02,41.91,16.1,56.3,28.99.36.32.76.67,1.18,1.03-7.93,14.49-19.94,26.5-27.76,32.14-6.94-7.36-10.88-13.11-10.98-13.25l-14.61-9.87c.69.97,19.31,26.56,37.33,41.08-4.72,8.53-15.21,31.51-9.25,56.7-1.02,6.32.14,13.89,7.25,19.72.83.68,1.67,1.27,2.51,1.81-75.94,19.71-136.36,7.05-156.08.04ZM297.48,209.95c.45.36.87.7,1.27,1.02-1.52,3.45-10.14,21.51-28.77,32.43-.75-.69-1.47-1.38-2.17-2.06,8.31-5.85,21.34-16.63,29.67-31.39ZM307.41,328.39c-7.35,6.33-11.13,4.06-11.56,3.76l-.89-.88-1.42.29c-.09.02-9.25,1.82-16.97-4.51-10.56-8.67-2.37-24.93-2.04-25.48l-4.35.45c-3.98-26.44,11.22-47.22,11.39-47.44l-.07-.05.77-1.08c-2.52-1.79-4.9-3.65-7.15-5.52,15.14-9.35,23.74-22.66,27.55-29.84,9.77,12.5,12.73,22.17,13.19,23.88-.07,3.5-1.33,35.22-24.38,53.07l-6.55,3.49c.58.09,13.9,2.27,17.85,17.35l-1.75,6.6c4.62-4.25,12.32-9.12,14.45-6.22,1.34,1.82-1.81,6.74-8.08,12.14ZM307.18,215.04c2.18-.4,4.35-.79,6.5-1.15.08,3.35.13,6.97.15,10.78-1.78-2.95-3.97-6.18-6.65-9.63ZM321.29,242.13c0-.25,0-.43,0-.5v-.29s-.07-.29-.07-.29c-.05-.21-.61-2.59-2.26-6.48-.02-1.17-.04-2.33-.06-3.47,5.11-.76,10.2-1.45,15.17-2.08-.01,3.65-.07,7.38-.18,11.17-4,.55-8.21,1.2-12.61,1.94ZM333.71,245.54c-.13,3.28-.31,6.59-.53,9.91-4.54.68-9.16,1.47-13.84,2.34.86-3.96,1.34-7.44,1.61-10.17,4.46-.8,8.72-1.5,12.76-2.08ZM328.72,223.37c-3.68.41-6.99.86-9.99,1.35-.12-4.11-.28-7.98-.43-11.58,5.3-.83,10.49-1.56,15.51-2.17.12,3.76.2,7.71.23,11.81-1.63.18-3.4.38-5.33.59ZM318.08,207.66c-.17-4.21-.32-7.9-.36-10.96,4.5-.61,9.78-1.26,15.37-1.92.2,3.29.38,6.92.54,10.82-5.04.58-10.24,1.26-15.55,2.06ZM318.38,264.35c4.83-.98,9.62-1.88,14.33-2.69-.29,3.4-.63,6.79-1.03,10.15-4.55.74-9.27,1.57-14.06,2.47.31-3.32.57-6.64.77-9.93ZM330.77,278.62c-.6,4.1-1.3,8.14-2.11,12.07-.22.03-.43.06-.65.09-3.74.51-8.14,1.14-12.8,1.85.62-3.56,1.15-7.14,1.6-10.73,4.73-1.17,9.41-2.28,13.97-3.29ZM309.76,306.14c.77.87.89,2.78.71,4.51-1.06.43-2.09.98-3.04,1.59-.63-2.09-1.35-3.93-2.13-5.55,2.15-.7,4.01-.92,4.46-.55ZM309.25,293.59c-1.14.19-2.28.39-3.43.58-.71-.56-1.97-1.22-3.95-1.3,2.67-2.86,4.96-5.88,6.94-8.96.61-.16,1.23-.31,1.84-.47-.42,3.39-.88,6.77-1.41,10.14ZM302.88,301.76c-.17.06-.34.12-.5.18-1.01-1.3-2.04-2.37-3.06-3.23,1.38-.39,2.59-.57,3.06-.37.53.65.62,2.06.5,3.41ZM347.43,287.25c-8.57,8.25-19.72,15.88-31.03,22.89-.15-.04-.3-.1-.45-.14.09-2.41-.27-5.37-2.15-7.47-.19-.21-.39-.4-.6-.58.25-.65.47-1.33.63-2.1.11-.51.2-1.03.3-1.54,4.77-.71,9.31-1.32,13.24-1.86-.29,1.18-.58,2.36-.89,3.52,0,0,2.8-.88,5.37-4.13,1.97-.27,3.88-.54,5.7-.81,0,0-.87-2.43-3.14-3.76.59-1.55,1.07-3.35,1.34-5.47.37-2.91.72-5.71,1.06-8.46,4.51-.92,8.86-1.71,12.96-2.32-.4,2.25-.82,4.5-1.28,6.74,0,0,2.75-1.55,5.44-7.29,1.31-.16,2.6-.3,3.85-.41,0,0-.86-1.56-2.5-2.9,1.16-3.28,2.21-7.51,2.89-12.93,2.56-.23,5.05-.4,7.43-.51,0,0-.54-4.77-6.84-5.03.33-3.47.59-6.75.79-9.89,4.42-.28,8.39-.43,11.86-.48,0,0-1.44-5.95-10.21-5.15-.44.04-.9.08-1.35.12.18-3.79.29-7.42.38-11,5.28-.43,10.03-.72,14.01-.85-.21,3.51-.48,7.03-.8,10.54,0,0,4.79-6.23,6.1-10.63,1.06,0,2.04.03,2.89.07,0,0-.17-1.48-2.51-2.89.26-4.89.41-9.76.47-14.61.65,0,1.29.01,1.9.02,0,0-.54-1.18-1.87-2.44,0-.07,0-.15,0-.22.02-3.91-5.65-11.51-5.65-11.51.08,2.98.12,5.97.12,8.97-1.06-.21-2.23-.31-3.57-.24-3.24.18-6.75.38-10.46.64.02-4.48-.14-8.19-.43-11.24,5.32-.49,10.2-.89,14.16-1.13,0,0-2.83-4.58-11.29-3.98-1.18.08-2.35.17-3.52.25-1.94-10.62-5.78-9.31-5.78-9.31.19,2.62.4,5.89.58,9.69-5.81.43-11.36.86-16.45,1.27-1.32-8-6.08-8.08-6.08-8.08.19,2.2.43,5.08.67,8.52-6.41.52-11.82.99-15.76,1.34-1.45-2.42-4.49-2.09-4.49-2.09,0,.06.08.93.19,2.48-1.47.14-2.39.23-2.61.27l-.64,6.78c1.09-.17,2.32-.36,3.66-.55.16,3.03.33,6.75.47,11.02-2.53.41-5.08.85-7.65,1.32l-.82-.64c-.07-.06-6.75-5.29-10.6-8.62,5.99-5.31,20.12-17.22,33.63-23.5l.08-.04c4.39-2.22,12.12-4.77,20.67-5.27,6.74-.39,16.46.38,24.54,6.32,7.86,5.77,12.2,14.19,12.92,25.02,1.88,28.39-21.8,67.86-38.88,84.29ZM339.67,239.43c.05-1.72.09-3.49.13-5.33.04-2.01.06-3.92.06-5.78,5.2-.61,10.21-1.13,14.9-1.57-.14,3.6-.33,7.3-.58,11.07-4.44.44-9.28.95-14.51,1.61ZM353.78,243.22c-.26,3.24-.56,6.53-.92,9.85-4.54.42-9.17.94-13.89,1.57.2-3.11.37-6.38.52-9.89,5.15-.67,9.91-1.16,14.29-1.53ZM339.83,222.14c-.06-4.29-.2-8.19-.37-11.83,5.48-.6,10.72-1.08,15.65-1.44,0,3.75-.04,7.69-.14,11.79-4.57.34-8.57.76-15.13,1.48ZM339.17,204.98c-.21-3.78-.44-7.33-.62-10.83,5.41-.61,10.95-1.2,16.24-1.73.12,3.41.22,7.13.27,11.12-5.01.38-10.33.85-15.89,1.43ZM352.2,258.83c-.43,3.48-.92,6.98-1.47,10.49-.42-.02-.84-.03-1.29.02-3.71.41-7.7.94-11.88,1.56.36-3.33.69-6.69.98-10.2,4.71-.74,9.28-1.37,13.67-1.87ZM360.38,220.3c.08-3.27.18-6.57.32-9.98.03-.63.04-1.22.06-1.83,5.16-.31,9.9-.49,14.11-.56-.05,4.23-.18,8.47-.38,12.73-2.81-.52-6.6-.78-11.73-.5-.83.05-1.62.09-2.38.13Z"/>
    <path d="M131.52,50.48c5.08-.89,7.28,1,8.64,3.23,1.16,1.9,1.34,3.92,1.34,3.93l3.41-.2c-.02-.3-.26-2.98-1.88-5.74-2.35-3.98-6.48-6.16-11.64-6.14-8.55.04-12.14,7.38-12.85,11.26l5.73.83c.01-.07,1.5-6.16,7.25-7.17Z"/>
    <path d="M184.89,47.42c11.96.28,18.54,10.03,18.63,10.36l4.26.22c-1.13-4.29-9.1-15.18-22.88-15.5-13.58-.31-19.01,8.3-19.99,12.89l6.29.92c.08-.37,2.08-9.16,13.68-8.9Z"/>
    <path d="M239.91,34.69c5.68-2.26,9.72-2.08,12,.51,8.04,9.14-5.14,22.73-5.28,22.86l3.86,3.81c5.88-5.94,14.59-19.9,5.5-30.25-9.06-10.32-27.31,2.97-28.09,3.54l3.22,4.36s4-2.94,8.79-4.84Z"/>
    <path d="M137.9,165.58c-1.5-14.31-2.22-27.89-2.23-28l-2.23.23c0,.11,1.12,13.42,2.63,27.83l1.83-.07Z"/>
  </g>
</svg>