<?xml version="1.0" encoding="UTF-8"?><svg id="Layer_1" xmlns="http://www.w3.org/2000/svg" viewBox="0 0 2189.7706 547.0416"><path d="M2079.0321,324.2552c-.0459.0127-.0908.0244-.1357.0371.3037.0303.6035.0557.8916.0742l-.7559-.1113Z" style="fill:#fff;"/><path d="M2082.9247,191.5521c-11.2949-10.1143-26.084-17.791-39.9326-23.3955l-6.9043-2.1504-9.1494-3.6592-34.6074,13.1787-10.1426,4.5869-60.502-6.7265c-8.2216,6.9091-18.6767,17.4316-24.2011,25.9902-.1485.2275-.7178,1.1934-.7178,1.1934l2.6455,1.4092s-.2109.2715-.4355.5723l.4316.0273c2.9258.4102,11.1055,3.2744,15.7246,9.2549l-.0596.5078c-6.9814,23.1475-16.3525,63.961-9.0703,98.9102,1.1612,5.5644,2.2529,13.7871,2.2529,13.7871l3.4209,1.5107c15.3155,5.8106,82.2637,21.6143,167.2188-2.2568-3.6895-.3613-8.4736-1.6348-12.8955-5.2598-7.4961-6.1484-7.2188-14.0703-5.7715-19.4677l-.3379-1.085c-6.8428-26.6435,6.0654-48.7461,9.7266-54.2949l.0488-.249c-2.5283-1.9239-5.0244-4.0293-7.4463-6.2295l.1631-.7481c19.04-10.6552,28.2559-28.3261,30.6533-33.5361l.2881.1074,1.2149-2.4688s-7.918-6.1944-11.6153-9.5088Z" style="fill:#fff;"/><path d="M1957.0751,185.8831c2.8574,3.6846,6.625,7.0948,10.2598,5.9844,4.4707-1.3662,9.168-6.8916,12.1172-10.9365l-22.377,4.9521Z" style="fill:#785032;"/><path d="M2176.2255,229.6302c-14.2002-13.0732-36.8125-10.2148-46.8379-6.4648-6.8711,2.3144-13.9726,5.8906-19.6719,9.0996.0118-.4688.0118-.7403.0118-.7403,0,0-2.5684-11.3486-14.7061-26.4238-.2451-.3027-1.2139-1.1504-1.5693-1.458l-.5039-.0215c-2.5352,5.4463-11.7579,22.8135-30.5645,33.3369l-.3965.5313c2.4453,2.2334,4.9688,4.376,7.5274,6.3291l.2714.1133c-3.2431,4.8457-15.5253,25.3076-10.7685,50.5605l.4746,16.1943,1.1465,1.2295c.9932,2.4678,2.6689,4.9073,5.3623,7.1162,1.1465.9415,2.3184,1.7207,3.4883,2.3702l3.3008,3.538-14.3125,3.2403-.0118,1.1914c-70.2363,15.2168-125.1738,4.1728-143.5078-1.6895l-.4883.3946,1.8594,3.2168c3.3945,11.164,9.2539,19.3349,16.4512,25.2685l.123.7979c1.6485,10.6963,9.2676,52.8955,30.4151,80.6113l-.2881-.126c-8.3447-4.2265-29.3145-13.0742-50.1113-7.748-50.6524,12.9638-31.2432,42.1562-24.4102,50.4892l.9531,1.128c6.211,13.0449,30.9258,10.8183,30.9258,10.8183l.6602.334c13.9785,9.9678,35.956-7.7881,35.956-7.7881l.6826-.4951c11.3623-1.166,38.5118-4.7705,46.8829-13.1875l37.496,17.9102s12.8125,11.1377,22.4786,16.1171c13.9961,7.2081,29.1464,5.8965,34.1367-6.5371.2929-.7304.541-1.4472.7412-2.1504l1.3623-.5507c4.707-1.2198,10.6914-3.5938,14.1035-8.1094l.7168-.9082s16.3154-22.7656-3.5908-38.5947c-18.3233-14.5694-56.9893-5.2481-63.0313-3.67l-.8359-.0088c13.8164-21.5156,20.7178-45.6943,24.0664-66.6376,17.7471-8.7295,46.1768-24.7754,66.6504-40.5215,24.3701-18.7442,68.7471-79.2129,37.3623-108.1055Z" style="fill:#785032;"/><path d="M1904.3886,258.3978s1.9834-7.1631,3.0693-14.8731c1.0869-7.7109,6.5137-26.8232,6.5137-26.8232l.5459-7.0566-11.1846-5.3203-5.2168-.4365c-1.1797,1.9756-2.4277,3.8115-3.414,5.8994l-.4766.3682c-8.2451-5.6855-17.6719-8.6709-23.5098-10.0967l-.1484-.5254c8.8398-12.5888,4.7246-23.041,4.7246-23.041,0,0,13.1084-22.0684-.4092-23.7246-6.3955-.7832-9.5986,2.9238-11.1943,7.0498l-.3594-.7324s-4.7734-21.6406-12.3555-21.0371c-5.3496.4287-6.2714,7.6933-5.2675,13.5732,1.0088,5.8731,2.331,17.7754,2.331,17.7754,0,0-11.456-22.376-21.081-17.2051-8.1455,4.3828.709,14.8037.709,14.8037l4.5332,13.3848-.0889.2236c-3.5156-2.2373-18.2754-11.1904-22.2031-6.6386-6.1709,7.1474,3.997,14.0507,3.997,14.0507l11.5371,9.4932s2.3086,18.291,19.6788,22.9971l.6084.1719c3.831,10.1113,11.9296,25.8935,26.7988,33.2226,15.333,7.5518,26.3086,6.1992,31.8623,4.4971Z" style="fill:#785032;"/><path d="M1904.2929,50.7376c-9.0186,21.1211-10.458,41.2442-10.458,41.2442l.3691.872c4.1094-.5039,7.0684-.1904,9.0274.2618l.7851-.5069c6.4326-.5517,15.8516-.7988,28.6475.207.1191.0118.2402.0215.3652.0323l8.3984,1.292s18.0694-4.3116,47.7579-1.9239c29.6875,2.3946,36.4062,5.4893,36.4062,5.4893l.8926-.0693c7.4385-2.128,16.415-5.5381,25.2969-3.0372,3.0088.8467,7.9609.6963,7.706-2.4013-.4512-5.5362-.5586-13.4229-3.6152-24.0186-.7363-2.5566-1.8291-5.5234-3.2744-8.7461,6.6718-10.4541,15.9648-30.3232,2.2968-44.9033-15.0595-16.0586-36.4541-7.7861-46.9365-2.1289-4.7099-2.3008-9.7646-4.2441-15.2011-5.6768-8.7139-2.2988-11.9249-3.996-23.4893-3.8603-15.0723.1758-27.1553,4.5117-36.8389,11.1816.3155-1.7851.375-2.8525.375-2.8525,0,0-24.1767-10.3857-35.751,4.6846-15.3115,19.9345,2.711,37.7373,2.711,37.7373,0,0,1.8086-1.0508,4.5293-2.877Z" style="fill:#785032;"/><path d="M1905.2919,42.8304c-.2607-.0762-.4033-.1367-.4033-.1367,0,0-5.6094-6.0469.9023-15.9248,5.6436-8.5576,12.6817-5.9649,13.9014-5.4297l-14.4004,21.4912Z" style="fill:#ebd7bd;"/><path d="M2021.12,95.5111s12.1446-9.8438,25.8731-6.833c15.0146,3.2939,30.5547,17.1103,19.5381,45.3154-10.0703,25.7812-52.336,29.5215-52.336,29.5215l-2.1631-.0977c-14.413,10.5547-37.4443,23.5508-61.5478,21.5615-26.002-2.1455-38.8106-21.4345-42.2236-27.5088l-.0957-.1738c-3.4971-1.0615-16.2979-6.1191-23.7803-24.8808-8.7256-21.8809,7.4726-38.8233,7.4726-38.8233l5.1612.2705,21.2783,1.6123,34.8887-3.3496,34.0576-.2226,26.9726,1.2441,6.9043,2.3643Z" style="fill:#ebd7bd;"/><path d="M1996.0829,91.3968c-.333-.0254-.6719-.0537-1.0107-.0811-18.1309-1.4023-31.0645-1.1025-39.4551-.4599l-.0068.043s2.3857-42.0079,23.6933-39.5762c18.0186,2.0605,16.7774,40.1084,16.7774,40.1084l.0019-.0342Z" style="fill:#fff;"/><path d="M1933.1659,91.5072c-.2402-.0206-.4873-.0401-.7304-.0616-13.0479-1.08-22.377-.5908-28.4366.1748l-.0058.0362s2.3584-41.0069,17.6855-38.9659c12.9619,1.7227,11.4815,38.8526,11.4815,38.8526l.0058-.0361Z" style="fill:#fff;"/><path d="M2039.289,48.0491c-4.1387-10.5498-11.1153-16.8652-16.6895-21.082l1.4414-1.1348s13.5547-9.3789,21.9063-1.6093c8.8408,8.2256-4.0752,20.6787-4.0752,20.6787l-2.583,3.1474Z" style="fill:#ebd7bd;"/><path d="M2006.8134,12.1663c24.4961,10.8535,37.6894,30.7471,44.792,48.6651" style="fill:none;"/><path d="M1921.6845,124.1693c-1.1533.58-3.2686,2.1211-4.9903,3.4882.2852,3.711,1.1036,12.1397,3.1026,19.918,1.3437,5.2246,3.7002,9.9297,4.7461,11.9873l16.0049.2393c1.5722-3.126,5.2216-13.0596,6.6631-30.4815-5.4249-1.8388-17.876-5.6943-25.5264-5.1513Z" style="fill:#fff;"/><polygon points="1977.3314 235.5809 1991.4576 235.5809 1991.5039 264.4709 1977.7835 264.3383 1977.3314 235.5809" style="fill:#750014;"/><polygon points="1930.5997 217.1224 1929.1172 251.4981 1928.5529 264.6275 1942.962 265.1347 1941.6183 217.3582 1930.5997 217.1224" style="fill:#750014;"/><polygon points="1945.6816 217.2212 1946.9025 256.3358 1958.0779 256.1987 1957.2646 218.0355 1945.6816 217.2212" style="fill:#750014;"/><polygon points="1961.1319 217.3582 1962.0787 266.8647 1972.7841 265.6447 1972.3783 217.2212 1961.1319 217.3582" style="fill:#750014;"/><polygon points="1977.0894 230.2225 1991.8367 230.0197 1991.8367 217.086 1976.9523 217.5647 1977.0894 230.2225" style="fill:#750014;"/><polygon points="2020.9292 215.3275 1995.0494 216.0021 1996.402 227.3874 2022.4242 226.7084 2020.9292 215.3275" style="fill:#750014;"/><polygon points="1997.4877 231.2869 1998.422 266.8246 2009.5919 266.417 2009.4709 230.7467 1997.4877 231.2869" style="fill:#750014;"/><path d="M1922.6698,40.3577c5.0752-.8886,7.2764,1.002,8.6387,3.2305,1.1611,1.9033,1.3408,3.919,1.3418,3.9297l3.4102-.2022c-.0215-.2968-.2559-2.9785-1.8848-5.7431-2.3477-3.9795-6.4805-6.1553-11.6367-6.1358-8.5537.0401-12.1445,7.3809-12.8477,11.2598l5.7256.8301c.0127-.0723,1.5039-6.1621,7.2529-7.169Z"/><path d="M1976.0429,37.3032c11.9551.2753,18.5381,10.0292,18.6309,10.3632l4.2637.2227c-1.1348-4.2881-9.1025-15.1826-22.8818-15.5049-13.583-.3076-19.0137,8.3008-19.9883,12.8936l6.2939.9248c.0791-.373,2.0781-9.1612,13.6816-8.8994Z"/><path d="M2031.0604,24.5698c5.6816-2.2579,9.7197-2.0831,11.999.5146,8.0352,9.1436-5.1445,22.7266-5.2764,22.8604l3.8555,3.8144c5.8779-5.9375,14.5918-19.9023,5.4961-30.2539-9.0566-10.3174-27.3135,2.9668-28.0859,3.5371l3.2217,4.3633c.041-.0293,4.0029-2.9365,8.79-4.8359Z"/><path d="M1929.0517,155.4652c-1.4951-14.3057-2.2217-27.8877-2.2305-27.9971l-2.2324.2334c.0088.1103,1.124,13.4189,2.6318,27.8291l1.8311-.0654Z"/><path d="M2178.0623,227.6351c-14.4746-13.3262-37.5615-11.5059-49.583-7.0254-5.8398,1.9697-11.7812,4.792-16.9365,7.5498-1.5078-4.3887-5.4111-13.583-14.3975-24.7441-.1104-.1396-.2725-.3154-.4834-.5245l1.2842-2.6084-1.7354-1.3574c-.0771-.0615-7.8877-6.1758-11.4775-9.3935-13.1499-11.7768-31.4106-21.7232-47.9678-28.5262.217-.0748.4351-.1494.6494-.2248,16.1807-5.6895,28.6543-15.7852,33.0439-27.0254,5.0781-13,3.6182-22.9961-1.1846-31.9688-1.5-2.8076-3.501-5.3339-5.8936-7.5244-1.0625-7.0605-3.8867-19.8447-8.0918-31.3593,4.2441-5.7207,10.6562-16.4034,10.7998-28.6006.0977-8.4854-3.3838-16.1699-10.3535-22.8428-9.666-9.2539-22.6182-11.6982-37.457-7.0693-4.8535,1.5136-8.96,3.165-12.0596,4.5537-11.5605-5.0508-22.8398-9.0928-39.9492-8.9395-12.998.1182-24.6562,3.374-34.7676,9.6016-2.2305-.7735-7.2881-2.3164-13.2227-2.7481-10.7891-.7822-19.2686,2.5245-24.4629,9.5733-14.8037,20.0859.5186,37.7822,3.3564,40.7656-5.4902,16.2734-6.9229,30.624-7.2393,34.791-1.624,1.7559-16.79,18.9893-7.8701,41.3546,7.3164,18.3447,19.4883,24.3076,24.3877,26.0234,1.7915,3.1031,5.3303,8.437,10.9495,13.6442-8.7412,7.8889-17.697,17.9275-22.1926,24.8919-.1602.2471-.7764,1.2891-.7764,1.2891l-1.4424,2.4384,2.5029,1.333.0107.0069c-.2109.3456-.4229.6894-.6348,1.0312-.8027,1.2968-1.625,2.6279-2.3555,4.0908-2.8643-2.9482-6.4092-5.7344-10.5518-7.3398-3.0322-1.1758-5.4482-1.9863-7.3447-2.5547,5.707-9.8848,4.4355-18.2344,3.6113-21.3769,2.0508-3.709,7.7676-15.1397,4.4463-21.9043-.9346-1.9053-2.9893-4.2911-7.4619-4.8389-4.1328-.5078-7.5957.499-10.292,2.9863-.1094.1006-.2041.2119-.3096.3164-.5459-1.8135-1.248-3.9277-2.0996-6.0488-3.3809-8.4248-7.2217-12.3555-11.7539-11.9854-2.2607.1807-4.1953,1.2276-5.5928,3.0245-3.4014,4.375-2.4922,11.5986-2.1318,13.7109.2793,1.6269.5859,3.7422.8809,5.9394-3.752-4.7802-7.4102-7.749-10.8945-8.8369-2.5645-.7998-5.1035-.584-7.3477.6211-3.2793,1.7647-4.375,4.291-4.7158,6.0996-.9854,5.2295,2.9961,10.7803,4.2988,12.4258l2.1475,6.3399c-6.7188-3.5733-15.6631-6.9766-19.5479-2.4766-2.0459,2.3691-2.9326,5.0938-2.5654,7.8799.7227,5.4863,5.959,9.3955,6.9785,10.1094l10.667,8.7773c.8193,4.2393,4.791,19.1162,20.5898,23.9005.7041,1.6728,1.7158,3.8906,3.1738,6.8271,6.2432,12.5694,14.7607,21.7832,24.6299,26.6465,5.2227,2.5723,14.1543,6.1094,23.7715,6.1094,2.1445,0,4.3242-.1797,6.5039-.582-1.6865,15.999-1.7168,33.3242,1.7461,49.9443,1.126,5.4005,2.21,13.5098,2.2207,13.5908l.2051,1.5498,4.9395,2.128.002.0107c.5322.2022,1.1133.4102,1.7197.6212l-.0146.0038,1.6016,2.7705c3.1836,10.2891,8.6445,18.7803,16.21,25.3535.8125,5.2969,3.0176,17.875,7.5312,32.7989,5.9268,19.5947,9.2217,30.6328,16.0869,40.2949-10.7549-3.9258-26.1807-7.4073-41.6045-3.4561-20.0957,5.1436-31.877,13.4766-35.0146,24.7686-3.9912,14.3594,7.4736,28.2734,10.5898,31.7168,2.4482,4.2822,7.1553,8.3769,16.6719,10.3203,4.4287.9053,8.7422,1.1152,11.7939,1.1152,1.5527,0,2.7744-.0547,3.5254-.0996,3.2275,2.2022,7.002,3.3242,11.2549,3.3242,3.877-.0009,8.1475-.9209,12.7422-2.7695,7.1357-2.873,12.8809-7.0977,14.4658-8.3184,2.7715-.3466,8.4873-1.1386,16.7822-2.6113,14.5635-2.5859,24.6104-6.0488,29.9531-10.3047l35.5586,16.9844c1.9961,1.7158,13.5742,11.5204,22.7324,16.2383,6.0322,3.1064,12.1846,4.6992,17.7988,4.6992,3.1191,0,6.0742-.4922,8.748-1.4893,5.2881-1.9707,9.2119-5.8252,11.3477-11.1474.1514-.376.2646-.749.3955-1.1231,7.7178-2.0263,13.1973-5.4843,16.1592-10.0683l.0576.041c.1787-.2481,17.5673-25.0615-4.1064-42.2969-16.0107-12.7305-45.6445-8.4756-59.2041-5.626,12.7236-20.4443,17.3838-40.5429,20.2939-60.8164,18.083-8.9961,45.4717-24.5459,65.7245-40.123,10.0244-7.711,21.877-21.0215,30.9307-34.7383,7.9082-11.9834,17.499-29.9434,18.2734-47.4453.5459-12.3262-3.377-22.4424-11.6582-30.0664ZM2111.1786,244.14c.6914-.0264,1.4111-.0528,2.1787-.0782-.1689,2.9805-.4043,6.627-.7295,10.8155-1.3535.0674-2.7266.1572-4.0918.2373,1.2227-3.96,2.0664-7.6924,2.6426-10.9746ZM2153.1766,259.8607c-.4023,3.665-.8691,7.5078-1.4141,11.499-4.5-.1611-8.4551-.1885-14.9395-.1914.4004-4.1943.6895-8.0244.915-11.5918,5.4131.0049,10.584.1064,15.4385.2842ZM2138.0418,254.3431c.2012-3.7188.3643-7.2109.5674-10.6475,5.3486-.0127,10.8262.0098,16.0479.0713-.2471,3.3389-.5547,6.9893-.9375,10.8926-4.9297-.1671-10.1797-.2842-15.6777-.3164ZM2150.911,277.2904c-.5273,3.5019-1.1133,7.0918-1.7656,10.748-4.3838-.0547-9.1621-.0732-14.3457.001.2354-1.6778.4697-3.3926.7041-5.1934.2549-1.958.4795-3.8252.6855-5.6387,5.1436-.0312,10.0938-.0019,14.7217.0831ZM2148.1746,293.2689c-.6035,3.1396-1.2559,6.3164-1.9629,9.5176-4.4785-.085-9.0625-.0723-13.7402.0332.5342-3.0147,1.0576-6.1924,1.5742-9.6036,5.1035-.0927,9.8066-.0625,14.1289.0528ZM2144.9373,308.3441c-.7979,3.3515-1.6533,6.7187-2.5752,10.0879-.4033-.0694-.8203-.1182-1.2666-.1182-3.6631,0-7.6211.084-11.7725.2373.7139-3.2139,1.3965-6.4619,2.0566-9.8564,4.6787-.2159,9.2188-.3379,13.5576-.3506ZM2132.5614,254.3372c-4.9834.0254-10.1426.1328-15.414.3379.2842-4.1328.5469-7.7519.834-10.7412,4.4628-.1035,9.6894-.1767,15.2226-.2139-.165,3.2325-.375,6.793-.6426,10.6172ZM2132.1658,259.6068c-.2939,3.6816-.6396,7.5527-1.0498,11.5625-1.6162,0-3.3604.0009-5.2725,0-3.6387-.001-6.9267.082-9.9033.2324.3223-4.0195.5938-7.8252.8379-11.3545,5.2656-.2422,10.412-.3828,15.3876-.4404ZM2130.4559,277.2669c-.4082,3.5596-.8682,7.2022-1.3818,10.8936-4.6475.1269-9.5742.3359-14.7919.666.4297-3.8311.8037-7.5703,1.127-11.1719,5.0703-.1875,10.1201-.3154,15.0468-.3877ZM2128.3153,293.3675c-.4863,3.1914-1.0146,6.4063-1.5898,9.625-4.7109.1807-9.5175.459-14.4101.8291.4941-3.2588.9385-6.4863,1.335-9.6601,5.1709-.378,10.0585-.6348,14.665-.794ZM2099.4716,290.0452c-.083-1.8837-.5566-3.9414-1.9658-5.499-.4961-.5478-1.8545-1.6953-4.4834-1.792,1.2461-1.334,2.4082-2.7041,3.5-4.0996,4.5459-.3174,9.1875-.581,13.8467-.791-.4346,3.6494-.9248,7.4434-1.4736,11.3428-3.0479.2324-6.2002.5176-9.4238.8388ZM2101.62,300.5306c-1.0625.4258-2.0879.9814-3.043,1.5869-.627-2.0908-1.3477-3.9346-2.1348-5.5498,2.1455-.6953,4.0117-.9238,4.4639-.5497.7734.8652.8857,2.7812.7139,4.5127ZM2094.0243,291.6439c-.168.0615-.3359.122-.4961.1845-1.0098-1.3037-2.0449-2.3681-3.0605-3.2285,1.3779-.3945,2.5918-.5693,3.0586-.3662.5264.6465.6191,2.0606.498,3.4102ZM2100.3251,273.2288c2.6221-4.165,4.6787-8.4345,6.2881-12.5849,1.8643-.1299,3.7256-.2559,5.5684-.3594-.3096,3.5488-.6787,7.3838-1.1172,11.4463-4.3398.3691-7.8623.8945-10.7393,1.498ZM2108.1044,294.6068c-.2666,1.7529-.5527,3.5312-.8447,5.3164-.0518-.0137-.1035-.0362-.1553-.0479.0625-1.6015-.0898-3.4365-.7412-5.1084.5781-.0517,1.1689-.1103,1.7412-.1601ZM2107.8661,327.0599c4.7441-.627,9.4355-1.2051,14.002-1.6992-1.0312,3.9414-2.1523,7.8076-3.3691,11.5595-.2148.0079-.4297.0157-.6465.0215-3.7109.0977-8.0615.2305-12.6924.4248.9873-3.4033,1.8838-6.8467,2.7061-10.3066ZM2109.4979,319.6986c.6182-2.9961,1.1748-5.9893,1.6914-8.9707.085-.2198.1592-.4366.2314-.6534,4.7812-.4267,9.5283-.791,14.1747-1.0713-.6504,3.2862-1.3525,6.5625-2.1094,9.8057-4.5263.2276-9.2167.5254-13.9882.8897ZM2088.6278,199.8314c.4463.3574.8721.6982,1.2734,1.0186-1.5166,3.4541-10.1406,21.5068-28.7725,32.4346-.7471-.6934-1.4678-1.3809-2.1719-2.0635,8.3125-5.8467,21.3418-16.6309,29.6709-31.3896ZM1894.661,43.4486c-3.2598-8.1993-2.0752-16.2061,3.5225-23.7997,7.0342-9.5421,20.3828-7.8663,27.5918-6.0694-2.2432,1.7441-4.3955,3.6543-6.46,5.7256-3.9629-1.251-11.0498-1.0117-16.2178,7.1738-5.9219,9.3682-2.667,15.8828-.9863,18.2578-.3721.8038-.7402,1.6143-1.0977,2.4395-.6094,1.4033-1.1846,2.8047-1.7295,4.1992-1.4111-1.7832-3.2637-4.5107-4.623-7.9268ZM1914.8554,24.2073c-3.5137,4.2168-6.7168,8.9688-9.5918,14.2461-.3535-2.1123-.0576-5.1591,2.4189-9.0781,2.4219-3.8349,5.1055-4.9717,7.1729-5.168ZM1905.9892,49.3333c12.5264-28.8838,32.8262-43.6552,60.3301-43.9062,14.0107-.1231,23.9473,2.7842,33.5557,6.7187l.9189,7.21c.0762-.0567,9.1973-6.7266,19.2324-9.8291,12.9668-4.0078,23.7188-2.0391,31.959,5.8506,5.833,5.5849,8.7549,11.9258,8.6787,18.8398-.166,15.4395-17.3408,31.5497-17.4883,31.6855l7.8809,1.3134c2.9453,8.6944,4.4707,16.5909,5.252,22.1563-2.6992-1.3828-5.6455-2.4492-8.7793-3.1358-12.1211-2.6591-22.8652,3.7188-26.5977,6.3096-3.7432-.8124-10.2324-1.8788-21.0449-2.8203-.1895-8.7334-2.1777-39.0342-20.6094-40.79-4.8418-.459-9.1064.838-12.7871,3.8339-10.665,8.6749-13.0439,30.0274-13.541,36.8672-5.2295.5909-9.0371,1.2784-11.2412,1.7334-1.6992-.9062-3.5918-1.7011-5.5869-2.3466-.1943-10.4738-1.9473-36.1281-14.3965-37.4777-3.4512-.375-6.5283.8936-9.2168,3.7393-8.0098,8.4863-10.0752,29.6611-10.5391,36.414-1.6592-.2099-3.8135-.2754-6.5654.0127.4941-5.6347,2.6416-24.0615,10.5859-42.3789ZM1983.2313,76.0922c5.626-.3808,7.6865,9.9326,8.0859,12.3036-4.751-.2226-9.3164-.3447-13.6875-.3652-.0469-2.6865.21-11.5723,5.6016-11.9385ZM1969.3622,88.1146c-3.3691.0908-6.6162.2402-9.7021.4648.8066-8.9385,3.7451-25.2793,11.3213-31.4394,2.1455-1.7442,4.4834-2.5235,7.1426-2.3848.1748.0088.3496.0215.5283.0381,4.5195.4306,7.6201,4.2695,9.7373,8.9697-2.1152-1.2822-4.7705-1.6172-8.1094-.4717-8.0723,2.7657-10.3223,18.2539-10.918,24.8233ZM1921.6845,124.1693c7.6504-.543,20.1016,3.3125,25.5264,5.1513-.1016,1.2383-.2188,2.4278-.3418,3.5899-.3867,3.6474-.8682,6.9209-1.3965,9.8369-.0215.1191-.043.2461-.0645.3652-.1094.5957-.2227,1.168-.3359,1.7334-.0342.1709-.0684.3496-.1035.5176-.1064.5244-.2158,1.0264-.3262,1.5244-.042.1913-.084.3877-.127.5752-.1055.4658-.2119.915-.3193,1.3565-.0479.1971-.0957.3954-.1436.5887-.1016.4141-.2051.8145-.3086,1.2051-.0527.1992-.1055.3965-.1572.5898-.0996.3653-.1992.7217-.2988,1.0664-.0566.1963-.1123.3907-.167.5791-.0947.3184-.1875.629-.2812.9278-.0596.1953-.1191.3838-.1807.5713-.0859.2734-.1738.5429-.2598.7998-.0625.1865-.124.3642-.1846.542-.0811.2304-.1611.4638-.2383.6777-.0664.1846-.1318.3555-.1963.5283-.0693.1856-.1406.376-.207.5489-.0713.1806-.1377.3457-.2061.5146-.0566.1387-.1152.2861-.1689.4141-.0791.1875-.1533.3545-.2266.5205-.0391.0879-.0801.1855-.1182.2666-.1094.2383-.2109.4541-.3057.6416l-16.0049-.2393c-.8486-1.6689-2.5596-5.0801-3.8916-9.0976-.3096-.9355-.6006-1.9024-.8545-2.8896-.1328-.5215-.2607-1.0459-.3848-1.5703-.04-.1699-.0771-.3389-.1152-.5098-.083-.3554-.1621-.7119-.2393-1.0693-.0439-.2012-.0859-.4023-.127-.6045-.0684-.3242-.1357-.6494-.2002-.9727-.042-.2128-.083-.4257-.124-.6386-.0576-.3106-.1172-.6211-.1738-.9297-.0381-.2139-.0771-.4277-.1143-.6406-.0547-.3057-.1074-.6114-.1582-.9151-.0352-.208-.0693-.416-.1045-.6201-.0479-.3076-.0957-.6113-.1426-.9131-.0312-.1963-.0615-.3955-.0908-.5888-.0479-.3116-.0908-.6163-.1348-.9209-.0254-.1778-.0527-.3584-.0771-.5323-.0479-.3535-.0938-.6953-.1377-1.0371-.4092-3.1201-.6494-5.7734-.7783-7.4551,1.7217-1.3671,3.8369-2.9082,4.9902-3.4882ZM1914.1454,88.3206c-2,.4658-3.8525,1.1172-5.4639,2.0137-.501.0498-1.0166.0908-1.5049.1484.7314-8.8554,3.127-24.8974,8.748-30.8486,1.4941-1.582,3.0938-2.3057,4.8896-2.2119.1162.0068.2334.0156.3535.0283,2.9189.3163,5.0781,3.6123,6.6201,8.3036-1.4609-1.039-3.2832-1.2295-5.5586-.1328-5.3975,2.5967-7.3916,15.6377-8.084,22.6992ZM1927.5888,79.5657c1.2529-.123,2.249.669,3.0371,1.8799v.001c1.1914,1.8291,1.9033,4.6201,2.2979,6.6943-1.8838-.4209-3.8232-.6904-5.7598-.7646-1.1982-.0459-2.4023-.0635-3.6016-.0508.2871-3.2275,1.2021-7.4834,4.0264-7.7598ZM1909.577,154.6038l-.667.3076c-2.9365-.8798-15.0596-5.5068-22.2031-23.4218-6.4414-16.1533,1.5898-29.3067,5.2939-34.169,5.3193-.6123,9.3281-.0996,10.8926.1739-.1328.498-.2451,1.0128-.3223,1.5576-1.2588,8.9287,12.6387,15.3418,16.4307,16.917.0225,1.5722.1152,3.2226.3945,4.7002-2.7607,1.4902-7.0029,5.3214-7.501,5.7539.0234.2793.2979,3.5234.8711,7.7256-8.2959,4.4501-18.5459,2.6484-18.5459,2.6484.2803.2187,4.7891,3.6357,11.1025,3.9658.4111.0215.8291.0293,1.2549.0225.4922.4775,5.7002,5.6054,9.8584,9.8506,2.6416,7.2597,5.375,12.1211,5.4971,12.3359l.8477,1.4941,5.1455.0772c3.1553,2.7832,7.2246,4.2549,12.5762,4.5351.8037.042,1.6367.0616,2.5.0459,9.707-.1845,17.3525-4.8994,28.5977-14.7812,5.8262-5.1192,10.5498-11.7041,12.875-15.166,32.8369-2.0303,44.71-14.835,44.71-14.835-22.3447,11.3125-60.1406,11.6113-76.0898,6.5742.1191-1.3193.2285-2.6748.3203-4.0859-.7002-.2627-16.5449-5.9502-27.9736-6.6875-.2607-1.5-.4326-3.9111-.4287-6.2871,8.7266-3.3311,23.4629-6.335,23.4629-6.335,0,0,1.5195-1.9453,1.3525-7.3779-.0449-1.3936-.8242-2.8838-2.1406-4.3359,2.3711-.3702,5.334-.7627,8.833-1.0987l.0078.0586c4.9932-.4775,12.4609-.9238,22.4414-.8349,2.7949.0576,5.7119.1679,8.7666.3535,28.3623,1.6904,38.9307,5.0703,38.9678,5.0849l-.8809-4.0175c4.208-2.4962,12.1426-6.1006,20.6338-4.2325,8.2373,1.8067,14.9473,6.5537,18.4082,13.0235,4.0811,7.6269,3.8574,17.3642-.6641,28.9394-7.7568,19.8623-36.7422,25.9551-46.7812,27.4903,5.4814-6.2373,7.9365-11.6143,7.9365-11.6143-.3604.3672-36.4561,36.707-74.667,33.5273-29.0195-2.3935-40.9951-27.6279-41.1133-27.8828ZM1964.0809,193.9212c.332.0205.6602.0293.9863.0293,7.2197,0,14.1079-5.7766,19.4082-12.2122,5.4485-2.1261,11.2908-4.9481,17.4854-8.644-6.9795,11.6287-20.1855,27.4142-40.2021,26.7488-8.2036-.2741-13.5476-5.2865-16.0183-12.9302,1.4689.2385,2.979.4295,4.5388.5582.5723.0469,1.1611.086,1.7686.1182.239.0125.4851.0215.7292.0313,2.7817,3.5317,6.744,6.0252,11.304,6.3007ZM1960.0087,187.4994c4.062-.2887,8.6111-.9734,13.6038-2.248-2.8171,2.0986-5.9331,3.4531-9.2034,3.2558-1.7166-.1036-3.1736-.4407-4.4004-1.0078ZM1903.1864,196.181c2.7451.7119,8.2646,2.9648,11.918,6.9473-.2988.8398-.6211,1.7637-.9619,2.7637-2.5449-2.1026-5.2695-3.5782-7.4248-4.5303-1.5781-.6973-3.9492-1.6279-6-1.9473.6914-1.0098,1.5234-2.0938,2.4688-3.2333ZM1902.2782,256.1624c-5.2695,1.2998-15.0664,1.9492-28.5527-4.6953-21.3584-10.5224-30.3369-41.706-30.3369-41.706l-1.2676,6.79c-12.0137-5.4736-13.9111-18.7725-13.9912-19.3818l-.1348-1.0694-12.3691-10.1777-.1934-.1465c-1.2031-.8262-4.4023-3.5908-4.7676-6.4238-.1602-1.2383.2637-2.4209,1.2949-3.6143,1.4648-1.6972,13.4814,2.5674,21.8105,8.1045l.5957-5.0098-4.2988-13.1982-.3359-.3945c-1.3398-1.5772-3.9453-5.6875-3.4463-8.3301.1143-.6104.4424-1.5156,1.9541-2.3281.9688-.5205,1.9736-.5908,3.1621-.2207,5.7344,1.7861,14.8057,15.1279,16.8184,19.0478l2.5127-4.3115c-.0537-.4893-1.3428-12.0498-2.3545-17.9316-.6758-3.9706-.248-7.7745,1.0684-9.4659.4629-.5966,1-.8886,1.7422-.9472.0352-.0039.0703-.0049.1055-.0049,2.8779,0,7.5771,9.7822,9.6992,18.5703-1.3604,3.7822-1.5713,7.6582-1.5898,9.3936l-2.2109,3.3066c-8.8877,2.4883-12.1465,10.7441-12.625,14.917,0,0,6.5684-8.1035,14.8672-9.8858l1.0742-.2304,4.3555-6.5254-.0332-.8779c-.0908-2.3926.4102-9.2793,3.7754-12.3741,1.4912-1.3711,3.4375-1.8847,5.9463-1.581,2.2363.2744,2.9268,1.1836,3.252,1.8437,1.7842,3.6299-1.7598,12.5967-4.8447,17.8037l-.6602,1.1407.4609,1.2207c.1377.3662,3.1934,8.7998-3.6875,19.4277l-4.333,4.71c13.0879,4.0645,28.1426,5.3975,36.1104,18.1075,0,0-1.6396-3.3604-4.6758-7.3496.9434-1.7715,2.5-4.209,3.3047-5.5098.2754-.4434.54-.8907.8105-1.3379,2.7676.7422,8.1387,2.9716,11.7402,6.8544-3.3418,10.7227-7.4473,26.2686-9.752,43.791ZM1910.7099,322.9779c-.3848-2.7247-1.1934-8.1622-2.0518-12.2793-10.5752-50.7549,16.8467-119.9991,17.1055-120.6446l-8.1221,6.9532c-2.7832-2.5215-5.9072-4.2276-8.3184-5.292-.4912-.2178-1.0059-.4356-1.5264-.6446,4.4159-4.5748,9.8145-9.4799,14.8801-13.727,4.6448,3.3677,10.3048,6.3596,17.072,8.2482,3.2896,10.897,11.0103,19.3115,21.8281,19.6722.4727.0156.9434.0234,1.4121.0234,14.1816,0,27.2617-7.209,37.9043-20.9238,4.1577-5.3561,7.9663-11.6607,10.7244-16.6168,3.0247-.65,7.9141-1.7634,13.1967-3.1652,17.632,6.0159,41.9065,16.0998,56.2997,28.9899.3584.3214.7578.6699,1.1807,1.0342-7.9326,14.4892-19.9424,26.5019-27.7559,32.1377-6.9443-7.3633-10.8799-13.1074-10.9824-13.253l-14.6104-9.8691c.6855.9707,19.3105,26.5576,37.3301,41.084-4.7246,8.5342-15.2119,31.5098-9.2471,56.7021-1.0176,6.3213.1416,13.8907,7.251,19.7207.8271.6797,1.666,1.2666,2.5078,1.8057-75.9414,19.7119-136.3564,7.0547-156.0781.044ZM1955.2997,482.9691c-.2285.1845-23.1934,18.4248-34.9375,5.6836-3.3066-3.5899-4.749-7.2549-4.29-10.8946.9365-7.4189,8.9209-13.5468,8.9209-13.5468-.4268.2744-13.3486,1.6015-14.2979,12.8359-.3818,4.5264.7773,8.8965,3.8535,13.0664-7.0947-.1309-18.8408-2.1553-22.5127-13.6671-3.5127-11.0146,4.5586-21.5166,4.5586-21.5166,0,0-10.752,3.0674-11.6348,15.3214-2.4189-4.8398-4.1123-10.7656-2.502-16.5596,2.5801-9.2851,13.0547-16.3388,31.1328-20.9668,20.1934-5.1689,40.7285,3.6944,48.6211,7.7461l13.9648,7.8555c-23.709-22.7207-35.375-67.1983-39.334-85.583,8.9062,5.6601,19.9688,9.2734,33.0156,10.6933,4.5312.4932,8.958.6895,13.1338.6895,2.9424,0,5.7588-.0977,8.4014-.2578.2607,11.0683,1.8506,56.7012,10.2002,96.5566-9.2852,7.6143-35.5303,11.7832-46.2939,12.544ZM2039.2059,452.845l5.1631-3.9248-.001.002c.1074-.0303,15.4316-4.2285,28.4893-5.3086,11.7979-.9746,27.8799-.541,37.4688,7.082,8.2012,6.5215,9.5596,14.3496,8.6113,20.9405-4.2275-12.6612-16.7588-17.8077-17.3809-18.0547,0,0,12.6396,11.0371,13.3154,25.6299.3818,8.1728-5.501,9.9209-12.0693,11.6279-.1289-2.4219-.707-4.7852-1.7881-7.0674-5.6113-11.8516-22.2305-17.1913-22.9346-17.4131,0,0,13.4531,10.042,18.0371,19.7471,1.7373,3.6748,1.751,7.5254.0459,11.7715-1.5742,3.9218-4.3359,6.6425-8.209,8.0859-5.9707,2.2266-14.2598,1.124-22.168-2.9492-9.2598-4.7705-21.8164-15.6445-21.9424-15.7539l-.2783-.2412-36.6172-17.4912c-8.7139-41.6495-7.7764-89.2227-7.5879-96.3604,7.2559-.8389,11.999-1.9365,12.3926-2.0293,0,0-16.2451.3965-37.0918-1.8984-26.7949-2.9512-48.0449-16.2803-55.123-37.3692,14.0303,3.8037,37.6855,7.8916,67.5967,7.8916,24.7012,0,53.6729-2.8037,84.9717-10.8466.8779,14.7441,2.3779,78.5732-32.9004,123.9296ZM2067.7196,316.9349c-10.5645-8.6651-2.3652-24.9346-2.0371-25.4795l-4.3535.4541c-3.9844-26.4375,11.2227-47.2217,11.3887-47.4434l-.0684-.0507.7705-1.0831c-2.5205-1.7939-4.9033-3.6523-7.1475-5.5234,15.1396-9.3506,23.7363-22.6552,27.5459-29.8418,9.7695,12.4951,12.7256,22.169,13.1924,23.8848-.0664,3.4951-1.335,35.2197-24.3799,53.0664l-6.5498,3.4892c.585.0879,13.9033,2.2696,17.8535,17.3467l-1.7451,6.5996c4.3877-4.0293,11.5342-8.6074,14.0723-6.5918-.3145,1.7745-.6455,3.5577-.9854,5.3487-1.4199,2.084-3.7031,4.5644-6.7148,7.1582-7.3506,6.3291-11.1318,4.0586-11.5625,3.7617l-.8887-.876-1.4248.293c-.0889.0205-9.2549,1.8154-16.9658-4.5127ZM2101.7138,327.8919c-.7764,3.2647-1.5996,6.5225-2.4775,9.7549-4.3301.2285-8.7627.5176-13.0488.8906.4775-2.4394.9492-5.1884,1.4971-8.6699,4.6357-.6582,9.334-1.3281,14.0293-1.9756ZM2077.6952,350.388c.0811-2.0244.1348-3.956.165-5.7812.4746-.0596.9531-.1182,1.4365-.1748-.46,1.8105-.9805,3.7236-1.6016,5.956ZM2080.536,339.0911c-.8965.0987-1.7793.2022-2.6484.3106-.0205-3.2051-.1064-5.9404-.208-8.1348,1.4512-.1992,2.9111-.4004,4.3838-.6074-.5449,3.3672-1.0225,6.0176-1.5273,8.4316ZM2184.3026,257.4613c-1.2373,27.9326-28.6309,63.9238-47.0928,78.124-17.0576,13.1191-40.9814,27.2793-59.582,36.8965,1.665-6.4815,3.1602-13.043,4.1904-16.7071.0745-.2648.1427-.5078.2147-.764,2.4503-.1625,5.2255-.1948,7.9445-.2233l.8046-.0088s0-5.3925-2.75-5.3925c-1.506,0-3.0068.0286-4.4591.0923.5583-2.0447,1.0323-3.8524,1.4591-5.6294,4.124-.3594,8.4316-.625,12.6855-.8252-.9209,3.1425-1.8926,6.2519-2.9209,9.3095,0,0,5.8994-1.0781,8.2285-8.0791.1621-.4873.3135-.9804.4717-1.4697,4.7295-.1719,9.2275-.2832,13.124-.3848-.4072,1.126-.8232,2.2403-1.251,3.3379,0,0,2.8428-.5488,5.7041-3.456,1.954-.0537,3.8408-.1104,5.6425-.1778,0,0-.5908-2.4658-2.6572-4.0097.7461-1.4493,1.4043-3.1631,1.8965-5.1983.6787-2.8056,1.3252-5.4951,1.9473-8.1465,4.5059-.414,8.8369-.7168,12.9062-.8632-.6348,2.1523-1.2891,4.3017-1.9795,6.4433,0,0,2.8604-1.2168,6.1035-6.54,1.3008-.0108,2.5684-.0029,3.7998.0254,0,0-.667-1.6182-2.1318-3.0987,1.4922-3.0742,2.9746-7.0927,4.2236-12.3173,2.5293.0566,4.9775.1533,7.3125.3027,0,0-.0156-4.7178-6.1338-5.6533.7021-3.3535,1.3057-6.5284,1.8389-9.5752,4.3506.2031,8.2412.4873,11.6387.8105,0,0-.7656-5.9687-9.4189-6.1338-.4326-.0078-.8857-.0156-1.3291-.0244.582-3.6787,1.085-7.2138,1.5654-10.706,5.2021.1543,9.8682.3847,13.7686.6816-.5898,3.4092-1.2285,6.8164-1.918,10.2139,0,0,5.3584-5.5694,7.1133-9.7266,1.04.1211,1.9844.249,2.8184.3839,0,0-.0068-1.4669-2.1426-3.0938.7773-4.7441,1.457-9.4902,2.041-14.2236.6328.0752,1.2539.1504,1.8506.2276,0,0-.3975-1.21-1.5615-2.5879.0088-.0703.0176-.1416.0264-.2129.4434-3.8155-4.2705-11.8555-4.2705-11.8555-.2412,2.916-.5293,5.8447-.8496,8.7793-1.0098-.3145-2.1484-.5439-3.4629-.6172-3.1855-.1787-6.6309-.3545-10.2871-.5107.5049-4.377.749-8.0186.7939-11.0274,5.25.0948,10.0586.2354,13.9551.4287,0,0-2.2656-4.7783-10.6025-5.1054-1.1621-.0459-2.3145-.0899-3.4639-.1328-.7432-10.5821-4.6348-9.7207-4.6348-9.7207-.0977,2.581-.249,5.7968-.4814,9.5312-5.7217-.207-11.1875-.3877-16.2051-.541-.4238-7.96-5.0625-8.5498-5.0625-8.5498-.0479,2.167-.1289,5.0068-.2656,8.3916-6.3125-.1817-11.6523-.3145-15.541-.3975-1.1504-2.5215-4.1621-2.5273-4.1621-2.5273-.001.0635-.0234.9179-.084,2.4463-.6455-.0108-1.1758-.0176-1.5928-.0215.1514-1.4932.2412-2.7617.292-3.752,5.3438-2.9472,11.7294-6.0908,17.8828-8.165l.084-.0293c4.5244-1.6914,12.3545-3.3438,20.7637-2.9082,6.623.3437,16.04,2.1543,23.2881,8.8281,7.0498,6.4903,10.3848,15.1826,9.9141,25.836ZM2157.0936,271.596c.4365-3.1894.8838-6.3984,1.3896-9.7138.0938-.6133.1738-1.1885.2588-1.7793,5.0713.2578,9.7188.5947,13.8428.9824-.5107,4.123-1.0918,8.2558-1.752,12.3887-2.6846-.8135-6.3564-1.4737-11.4033-1.753-.8184-.0449-1.5918-.0869-2.3359-.125Z"/></svg>